<?xml version="1.0" encoding="UTF-8"?><svg id="a" xmlns="http://www.w3.org/2000/svg" viewBox="0 0 92.27 112.33"><defs><style>.b{fill:#9ecee4;}</style></defs><polygon class="b" points="82.1 6.6 82.08 6.59 82.07 6.59 82.11 6.49 82.11 6.49 82.12 6.52 82.12 6.54 82.12 6.55 82.12 6.56 82.11 6.6 82.1 6.6 82.1 6.6"/><polygon class="b" points="57.89 12.96 57.89 12.96 57.89 12.96 57.89 12.96 57.89 12.96 57.89 12.96"/><rect class="b" x="82.11" y="15.46" width="0" height=".01" transform="translate(-1.36 11.73) rotate(-8.11)"/><rect class="b" x="68.96" y="20.88" width="0" height="0" transform="translate(9.26 61.22) rotate(-50.89)"/><polygon class="b" points="39.05 33.03 39.05 33.03 39.05 33.03 39.05 33.03 39.05 33.03 39.05 33.03"/><rect class="b" x="81.95" y="4.17" width=".01" height="0" transform="translate(46.38 78.12) rotate(-67.22)"/><polygon class="b" points="81.96 4.15 81.96 4.16 81.96 4.15 81.96 4.15 81.96 4.15"/><rect class="b" x="79.6" y="56.34" width="0" height="0" transform="translate(-17.88 59.13) rotate(-36.93)"/><rect class="b" x="44.13" y="23.62" width="0" height=".01" transform="translate(-2.94 40.64) rotate(-48.04)"/><rect class="b" x="38.03" y="35.97" width="0" height="0" transform="translate(-7.46 61.85) rotate(-73.04)"/><polygon class="b" points="18.41 56.71 18.41 56.71 18.41 56.71 18.41 56.71 18.41 56.71 18.41 56.71"/><polygon class="b" points="38.02 35.98 38.03 35.98 38.03 35.97 38.02 35.98 38.02 35.98"/><rect class="b" x="37.42" y="37.25" width="0" height="0" transform="translate(-14.38 47.48) rotate(-56.04)"/><rect class="b" x="19.9" y="38.63" width="0" height=".01" transform="translate(-23.23 33.3) rotate(-55.68)"/><polygon class="b" points="40.32 51.57 40.32 51.58 40.32 51.57 40.32 51.57 40.32 51.57 40.32 51.57"/><polygon class="b" points="16.91 50.3 16.91 50.3 16.91 50.3 16.91 50.3 16.91 50.3 16.91 50.3"/><rect class="b" x="47.11" y="42.34" width="0" height=".01" transform="translate(-16.17 39.45) rotate(-39.33)"/><polygon class="b" points="37.4 37.27 37.42 37.25 37.4 37.28 37.4 37.27 37.4 37.27"/><path class="b" d="M91.93,67.68c-1.03,.95-1.97,1.99-2.82,3.1-1.72,2.23-3.06,4.75-3.94,7.42-.88,2.67-1.28,5.5-1.12,8.3,.09,1.65,.38,3.29,.86,4.88h0c-.23-.87-.4-1.76-.52-2.65h0c-.27-2.01-.26-4.07,.02-6.1h0c.15-1.1,.38-2.2,.67-3.27,.3-1.08,.67-2.13,1.1-3.16h0c.85-2.02,1.96-3.93,3.3-5.67,.85-1.09,1.78-2.12,2.8-3.05v.65c-.52,.77-1.02,1.56-1.49,2.37-1.02,1.76-1.88,3.62-2.56,5.54-1.32,3.76-1.86,7.78-1.58,11.75,.3,4.15,1.48,8.19,3.31,11.92h0c-1.19-2.85-2.05-5.83-2.46-8.89-.37-2.83-.36-5.69,.02-8.52,.44-3.19,1.35-6.31,2.59-9.28l.02-.05c.63-1.48,1.34-2.92,2.13-4.32v3.53c-.52,10.38-.52,15.27,0,28.29v11.87c-.32-.72-.72-1.47-1.18-2.28-.64-1.09-1.35-2.17-2.05-3.22-.82-1.23-1.49-2.33-2.07-3.37-.72-1.28-1.35-2.57-1.88-3.82-.62-1.46-1.06-2.69-1.39-3.87-.47-1.66-.8-3.17-1.02-4.62-.12-.77-.22-1.58-.29-2.4-.06-.67-.09-1.39-.09-2.27,0-1.41,.11-2.84,.34-4.25,.25-1.53,.61-3,1.08-4.37,1.31-3.84,3.71-7.7,7.19-10.91,.44-.4,.89-.8,1.37-1.19v1.61c-.12,.1-.23,.2-.34,.31h0Z"/><polygon class="b" points="90.15 72.95 90.14 72.96 90.12 73 90.15 72.95 90.15 72.95"/><rect class="b" x="90.11" y="73.01" width=".01" height="0" transform="translate(-13.39 125.33) rotate(-65.83)"/><path class="b" d="M58.61,63.64s0,.01,0,.05v-.05h0Z"/><path class="b" d="M60.2,95.67v.07c-.02-2.15-.35-3.75,.15-5.85,2.44,.11,5.17-.88,7.47-1.72,.46-.17,.92-.36,1.37-.57,2.78-1.28,5.16-3.31,7.01-5.74h0c-.83,.95-1.75,1.83-2.75,2.61-1.26,.97-2.65,1.75-4.1,2.37-.69,.29-1.4,.54-2.11,.77-.68,.23-1.35,.47-2.02,.71-1.44,.51-2.91,1.02-4.44,1.22-.03,0-.02,0-.33,.03,.65-2.36,1.67-2.98,3.55-4.02,7.28-1.29,12.27-4.44,17.37-9.83,3.34-3.53,2.74-2.83,3.62-3.76-1.04,1.93-2.33,3.67-3.67,5.39l.02-.02c-.64,.83-1.3,1.65-1.95,2.47-.63,.8-1.24,1.62-1.86,2.43,.07-.09,.07-.1,0,0h0c-.47,.63-4.18,5.52-9.94,9.93-1.72,1.31-3.51,2.52-5.35,3.66h0c5-2.69,9.27-5.78,13.08-9.89,1.29-1.39,2.47-2.89,3.59-4.42,1.32-1.8,2.71-3.59,3.95-5.46-.06,.15-.13,.31-.19,.47-.48,1.2-.91,2.49-1.28,3.84-.17,.63-.31,1.25-.42,1.77-.12,.55-.25,1.18-.34,1.82-.17,1.26-.26,2.49-.26,3.67v-.06c.01,1.28,.12,2.56,.32,3.8,.03,.12,.06,.22,.07,.33,.05,.43,.03,.28,.04,.31,0-.06,.02-.12,.03-.18,0,.09,0,.18-.01,.27,.09,.48,.2,.96,.31,1.43-.13-.38-.25-.78-.36-1.17-.31,1.52-2.09,3.53-3.75,3.96-.08-.08-.16-.16-.23-.25-.13-.17-.23-.36-.31-.55-.11-.26-.18-.53-.22-.81-.04-.35-.02-.7,.03-1.05,.1-.71,.3-1.39,.58-2.05h0c.55-1.27,1.33-2.45,2-3.67h0c-.56,.78-1.17,1.54-1.7,2.35-1.21,1.86-1.98,4.59-.36,6.07-.12,.02-.23,.03-.34,.04h-.06c-.69,0-1.53-.27-1.82-1.04-.04-.1-.07-.2-.09-.3,0-.31,.03-.62,.07-.92,.15-1.06,.49-2.07,.9-3.05h0c.78-1.84,1.83-3.55,2.94-5.21h0c-2.04,2.45-3.91,5.17-4.08,8.37-.91,.84-1.83,2.74-4.59,3.55-.63,.18-1.12,.29-1.59,.36-.66,.09-1.33,.1-1.98,.12-1.35,.03-2.72,.11-4.05,.46-.84,.24-1.05,.39-1.31,.52-.35,.21-.78,.48-1.31,.82-.24,.15-.39,.24-.44,.24h-.01c.06-.04,.16-.16,.21-.21-.12,.12-.26,.23-.4,.33h0c1.27-1,1.4-3.14,1.41-4.75h0Z"/><path class="b" d="M77.51,82.25h0c.07-.1,.07-.09,0,0h0Z"/><rect class="b" x="58.61" y="63.63" width="0" height="0" transform="translate(-11.3 12.67) rotate(-11.27)"/><path class="b" d="M48.38,62.8c.07-.15,.15-.3,.23-.45-.52,1.46-.85,3-.76,4.56,.16,2.6,1.45,4.58,3.56,6.05-.09-.08-.18-.16-.27-.24-.58-.51-1.11-1.08-1.54-1.72-.35-.52-.63-1.08-.83-1.67-.21-.64-.33-1.3-.37-1.96-.06-1.04,.06-2.08,.26-3.09,.23-1.13,.57-2.24,.95-3.33,.09-.24,.17-.49,.27-.73,.03-.04,.05-.08,.08-.12,.62-.93,1.24-1.7,1.88-2.37,.44-.46,.92-.89,1.46-1.32,.17-.21,.37-.39,.6-.55-.09,.14-.17,.28-.25,.43-.03,.05-.06,.11-.09,.16-3.09,5.76-1.43,12.73,3.37,17.21,.06,.06,.13,.12,.19,.18-.98-.96-1.84-2.03-2.56-3.2-2.5-4.08-2.89-8.78-1.35-12.85-.12,1.34,.25,2.97,.59,4.26,.04-.01,.59,2.57,1.86,4.79v-.03c.43,.76,.93,1.43,1.48,1.99h0v-.02c.45,.45,.94,.84,1.45,1.15,.47,.27,.96,.48,1.46,.61h.04l.05,.03c-.36-.14-.69-.32-.99-.54-.49-.37-.9-.85-1.2-1.4-.56-1.04-.84-2.3-.82-3.77,0-1,.13-1.84,.36-2.57,.15-.45,.34-.89,.58-1.3v-.02c-.26,2.14,.35,4.28,1.23,5.91,.3,.55,.71,1.02,1.03,1.55-1.13-1.86-1.77-4.01-1.81-6.19-.02-.83,.05-1.68,.32-2.47,.56-1.62,1.94-2.87,3.41-3.67,1.85-1.01,1.94-1,2.17-.99-.01,.05-.04,.09-.06,.14-1.57,1.21-2.72,3.13-3.07,5.73-.19,1.4-.07,2.84,.28,4.2,.34,1.29,.92,2.53,1.77,3.56,.15,.18,.3,.35,.47,.51-.04-.06-.09-.12-.14-.18-.45-.58-.81-1.23-1.1-1.9-.38-.9-.62-1.86-.76-2.83-.15-1.12-.14-2.26,0-3.39,.27-1.98,1.01-3.97,2.39-5.38-.1,.2-.19,.38-.29,.55-.12,.46-.21,.95-.27,1.49v-.05c-.13,1.33-.09,2.78,.13,4.3,.25,1.61,.67,3.12,1.27,4.48,.42,.92,.88,1.69,1.41,2.36,.52,.63,1.14,1.21,1.84,1.72,.83,.59,1.76,1.09,2.76,1.48h.03c1.2,.46,2.5,.77,3.87,.93h.04c.66,.07,1.33,.11,1.99,.11,.93,0,1.87-.07,2.8-.2h-.01c.28-.04,.56-.09,.84-.15-1.4,.73-2.85,1.37-4.34,1.89-2.21,.77-4.52,1.31-6.85,1.49h.01c-1.63,.12-3.27,.06-4.88-.22-1.45-.26-2.86-.7-4.19-1.31-.37-.17-.74-.36-1.1-.56h0c3.25,2.16,6.95,2.95,10.71,2.68,.94-.07,1.88-.2,2.81-.39,.92-.19,1.84-.45,2.73-.76,2.18-.75,4.22-1.78,6.18-3.07,.89-.23,1.76-.52,2.61-.91-1.99,1.46-4.2,2.83-6.41,4.03-1.63,.88-3.29,1.71-5.01,2.42-.59,.24-1.18,.47-1.78,.68-5.13,1.79-11.75,2.91-16.71,.62-.73-.34-1.43-.76-2.07-1.26,4.76,4.42,12.95,3.88,19.12,1.88,.79-.26,1.58-.54,2.35-.86,.79-.32,1.55-.7,2.3-1.09,1.3-.67,2.56-1.44,3.76-2.27-1.03,.88-2.08,1.74-3.18,2.54-1.65,1.19-4.62,2.97-6.51,3.97-.87,.46-1.75,.89-2.64,1.29-2.14,.96-6.57,1.92-6.87,1.97-2.17-.32-5.17-1.39-7.11-2.88-.78-.59-1.54-1.29-2.26-2.08-.71-.77-1.28-1.55-1.76-2.39-1.72-3.04-2.97-8.7-2.08-12.43,.23-.98,.56-1.92,.98-2.79h0Z"/><path class="b" d="M90.37,63.05c-.02,.06-.05,.11-.07,.17,.03-.06,.05-.11,.07-.17h0Z"/><path class="b" d="M73.14,69.15c-.76-.57-1.39-1.21-1.85-1.92-.51-.77-.84-1.65-.97-2.53-.12-.88-.16-1.76-.11-2.63,.15-2.47,.86-4.62,2.85-6.05,.38-.28,.79-.52,1.16-.75,.05-.04,.1-.08,.16-.11l-.06,.05,.03-.02h.04s-.45,.23-.86,1.38h0c-.22,.62-.36,1.3-.43,2.04-.06,.81-.02,1.63,.12,2.46v.03c.14,.72,.36,1.41,.64,2.05,.25,.53,.56,1.02,.9,1.45,.29,.33,.62,.64,1.04,.93l.03,.02h0c.58,.39,1.22,.71,1.99,.99,.87,.3,1.78,.5,2.7,.58h.03c2.34,.15,6.04-.86,8.08-2.29-2.21,2.3-5.7,4.51-8.96,4.7-.59,.03-1.18,0-1.75-.13h0c-.27-.06-.54-.14-.8-.24h0c.87,.43,1.83,.6,2.79,.6,.43,0,.86-.03,1.28-.09,.77-.11,1.52-.31,2.25-.57,.76-.27,1.49-.61,2.18-1.01,4.04-2.36,4.81-5.39,4.96-5.71-.05,.22-.11,.44-.2,.65-.03,.06-.05,.11-.07,.17l-.04,.09h0l.05-.09c.03-.06,.05-.11,.07-.17,.06-.13,.12-.26,.18-.4-2.18,6.77-11.23,11.09-17.4,6.5h0Z"/><rect class="b" x="77.9" y="69.41" width="0" height="0"/><polygon class="b" points="76.76 54.29 76.77 54.29 76.76 54.29 76.76 54.29"/><polygon class="b" points="76.77 54.31 76.77 54.29 76.77 54.31 76.77 54.31 76.77 54.31"/><polygon class="b" points="78.66 48.7 78.65 48.7 78.66 48.7 78.66 48.7"/><path class="b" d="M85.89,43.4c1.01,1.74-2.56,2.76-3.83,3.44-.96,.53-1.6,1.12-2.19,2.05-.45,.74-.79,1.61-.86,3.43v-.05c-.01,.93,.06,1.74,.22,2.48h0v.03c.11,.41,.23,.77,.39,1.08,.14,.16,.23,.32,.29,.49l.03,.03,.04,.08-.03-.02-.02-.03,.02,.07h-.01l-.04-.1c-.2-.18-.38-.38-.55-.61-.11-.08-.22-.15-.33-.22-.43-.62-.82-1.27-1.12-1.96-.15-.36-.26-.73-.32-1.11-.03-.27-.04-.55,0-.82,.04-.25,.1-.48,.2-.71,.11-.24,.24-.47,.4-.68h0l.07-.09h0c-.51,.48-.88,1.09-.98,1.8-.1,.69,.06,1.37,.34,2,.19,.43,.44,.83,.73,1.21-.18-.08-.35-.16-.52-.24l-.16-.07c-.27-.12-.55-.25-.81-.41-.02-.06-.05-.11-.08-.17h0c-.23-.56-.4-1.12-.48-1.71-.04-.34-.05-.68,0-1.01,.04-.26,.1-.51,.2-.76,.09-.2,.2-.4,.34-.57,.12-.16,.26-.3,.41-.43h0c-.23,.16-.45,.35-.63,.58-.17,.21-.3,.46-.39,.71-.37,1.03-.03,2.24,.46,3.22-.24-.16-.47-.34-.69-.54-.29-.27-.59-.56-.84-.9-.29-.4-.49-.76-.61-1.11-.16-.49-.2-.91-.12-1.27l.02-.08c.02-.11,.05-.22,.09-.33,.05-.14,.12-.27,.19-.4,.08-.15,.21-.27,.33-.39,.05-.05,.1-.09,.15-.13-1-.97-1.18-2.91,.3-4.33,.81-.78,2.39-1.45,4.16-1.45,1.34,0,2.37,.64,3.87,1.01h-.02s.01,0,.19,.03c-1.54,1.09-4.24-.46-5.94,2.86h0l.06-.09h0c.23-.35,.49-.67,.81-.95h0c.89-.68,1.49-.79,2.78-.84,1.03-.04,1.98-.05,2.62-.93,.95,.1,1.24-.19,1.52-.65-.05,.11-.1,.22-.17,.33-.34,.51-.89,.92-1.43,1.19-1.49,.72-3.31,.91-4.48,1.96-.65,.58-.78,1.28-.81,1.36h0s.13-.32,.29-.55c.31-.46,.71-.77,1.22-1.03,1.1-.53,2.48-.69,3.66-1.21,.96-.42,1.9-1.24,1.99-2.29,.02-.19,0-.38-.04-.56,.07,.09,.12,.2,.13,.34h0Z"/><rect class="b" x="76.77" y="54.29" width="0" height=".01" transform="translate(-14.9 33.37) rotate(-22.41)"/><path class="b" d="M85.67,43.01c-.07-.09-.06-.08-.07-.09l.07,.05v.04h0Z"/><rect class="b" x="69.12" y="52.45" width="0" height="0" transform="translate(-17.48 47.1) rotate(-33.66)"/><polygon class="b" points="69.05 48.03 69.03 48.01 69.05 48.03 69.05 48.03"/><rect class="b" x="69.02" y="48.01" width="0" height="0" transform="translate(-12.47 68.72) rotate(-49.08)"/><polygon class="b" points="69.42 48.54 69.41 48.52 69.42 48.54 69.42 48.54"/><path class="b" d="M91.9,34.04h0c-.27,.77-.57,1.53-.99,2.23-.41,.69-.91,1.31-1.49,1.85-1.19,1.1-2.62,1.9-4.13,2.46-6.06,2.21-11.73,.31-16.61,1.54-1.03,.26-2.01,.72-2.96,1.45-1.52,1.2-2.6,2.79-2.87,4.69-.13,.99-.03,2.07,.36,3,.85,1.96,2.53,1.92,2.63,1.99h0c.4,.06,.87,.05,1.27,0h-.01c.97-.14,1.93-.55,2.54-1.32h0c.14-.18,.25-.38,.34-.59h0c.05-.13,.05-.1,.05-.1-.04,.11-.08,.23-.14,.34-1.13,2.18-6.05,3.05-7.19-1.01-.19-.67-.27-1.38-.24-2.07,.17-3.27,2.81-6.45,6.9-7.27,.87-.17,1.75-.27,2.64-.32,4.35-.26,9.79,.59,14.52-1.38,3.05-1.3,4.35-3.04,5.26-5.18h0c.04-.1,.09-.2,.13-.31h0Zm-23.49,13.48c2.73,.12,1.35,5.11-2.12,4.13-.06-.01,.19,.03,.22,.03h0c.23,.03,.46,.03,.7,0h0c2.18-.29,2.94-2.74,1.82-3.65-.62-.48-1.62-.34-2.1,.73h0c-.02,.05-.1,.28-.09,.22,.18-1,.87-1.49,1.56-1.46h0Zm18.05-6.32c3.29-1.48,5.15-4.17,5.82-5.36v-3.63c-1.12,2.63-3.55,4.78-6.05,6.13-4.52,2.36-9.29,1.41-14.3,1.92-3.06,.31-5.63,1.14-8.01,3.15-.8,.67-1.4,1.33-1.85,2.01-4.54,6.85,5.91,13.25,9.37,6.42,.52-1.02,.5-2.08,.13-3.15-1.76-5.22-6.92-1.15-5.44,1.03-.07,0-.12,.01-.17,.02,.24,.39,.63,.65,.96,.71,.42,.02,.95-.18,1.25-.56,.14-.19,.19-.36,.11-.58-.01-.03-.05-.09-.09-.15h0c-.05-.05-.1-.1-.15-.15-.04-.03,.33,.16,.37,.5,.07,.6-.83,1.53-1.75,1.53-.12,0-.24-.01-.35-.03-.47-.06-.94-.28-1.28-.62-.82-.82-.7-2.1-.12-3.02,.03-.05,.07-.1,.1-.14,.08-.18,.18-.37,.31-.57,.27-.42,.59-.8,.95-1.13,.38-.34,.81-.64,1.3-.91,.65-.34,1.39-.61,2.24-.81,1.49-.34,3.03-.45,4.46-.51,.32-.01,.65-.03,.98-.04h.21c.35-.02,.71-.03,1.06-.05,3.22-.16,7.03-.68,9.95-1.99h0Z"/><path class="b" d="M90.28,45.33c-.32,.67-.59,1.38-.72,2.11-.14,.78-.12,1.57,.06,2.34,0,0,0,0,.02,.05,0,.03-.06-.63,.01-1.36h0c.28-2.28,1.74-3.84,2.63-5.9v7.92c-.61,.01-1.23,.35-1.77,.61-.57,.28-1.11,.63-1.61,1.03-.25,.2-1.27,1.42-1.51,1.63-1.31,.58-2.16-2.48-2.56-3.24-.09-.15-.2-.29-.31-.41-.12-.12-.26-.22-.39-.31-.15-.08-.3-.14-.46-.19-.19-.05-.39-.07-.6-.08-.19,0-.36,.03-.54,.07-.08,.02-.17,.05-.26,.08,.28-.28,.37-.3,.43-.37,1.97-.22,3.32,.77,4.54,2.32-.77-1.58-2.03-2.96-3.8-2.95,.05-.03,.1-.07,.16-.1,.3-.17,.58-.26,.85-.3,1.11-.16,2.91,.26,3.39,1.15-.2-.61-.78-1.38,.11-2.82,.24-.39,.55-.77,.99-1.18,.16-.15,.33-.3,.49-.45,.19-.17,.38-.34,.56-.52,.67-.67,1.26-1.43,1.74-2.25,.21-.37,.39-.73,.55-1.08v.49c-.56,1.28-1.39,2.43-2,3.69h0Z"/><path class="b" d="M90.81,61.33s0-.04-.01,0c-.19,.08-.38,.18-.56,.29-.16,.11-.29,.21-.4,.33-.11,.12-.21,.26-.29,.41h0c-.22,.42-.13,.38-.21,.68h0v-.1l-.02,.06c0-.15,.06-.37-.21-1.22h0c-.1-.32-.23-.64-.35-.94-.13-.32-.26-.65-.36-.98-1.03-3.18,.03-5.94,1.96-7.36-1.96,2.19-.56,5.39-.69,8.02h0c.86-3-.63-6.33,1.3-8.41,.3-.16,.62-.29,.94-.39-.07,2.13,.25,3.91,.36,5.81v3.09c-.46,.33-1.03,.52-1.46,.7h0Z"/><path class="b" d="M86.09,35.84c-.69,.23-1.39,.34-2.07,.34h-.03c-.36,0-.68-.03-.96-.09-.32-.07-.67-.15-.98-.32-.37-.2-.69-.43-.99-.74-.26-.27-.5-.6-.69-.97-.39-.75-.55-1.61-.45-2.36,.12-.9,.56-1.68,1.19-2.16,2.52-1.89,6.65,.22,5.44,3-.12,.27-.24,.48-.39,.65h.02c-.07,.08-.14,.15-.22,.21-.2,.16-.42,.29-.66,.4-.15,.06-.3,.11-.46,.13-.17,.02-.33,.02-.5,0-.23-.03-.45-.1-.67-.18-.22-.09-.43-.21-.62-.35-.16-.12-.31-.26-.44-.42-.09-.12-.16-.24-.22-.37-.04-.1-.07-.2-.09-.31,0-.1,0-.2,0-.3,.01-.08,.03-.16,.06-.24,.03-.07,.07-.14,.12-.2,.06-.07,.12-.14,.19-.2,.09-.07,.19-.12,.3-.17,.12-.05,.25-.08,.38-.1,.13-.01,.25-.01,.38,0,.1,.02,.2,.04,.29,.08,.08,.03,.15,.08,.22,.12,.06,.05,.12,.1,.17,.17,.05,.08,.1,.16,.14,.24,.02,.06,.04,.13,.05,.2,0,.08,0,.16,0,.24-.01,.09-.04,.17-.07,.25-.03,.08-.07,.15-.12,.22-.05,.06-.1,.11-.16,.16-.06,.04-.12,.08-.19,.11-.07,.03-.14,.05-.21,.06-.08,0-.15,0-.22,0h-.05c.33,.12,.68,.07,.97-.14,.3-.22,.46-.57,.49-.93,.03-.36-.14-.72-.37-.99-.21-.24-.53-.4-.83-.47-.66-.15-1.42,.06-1.89,.56-.53,.56-.53,1.41-.17,2.06,.28,.5,.78,.87,1.3,1.09,.4,.17,.82,.27,1.25,.27,.14,0,.27,0,.41-.03,.61-.09,1.16-.51,1.55-.97l.06-.07,.07,.05c.14,.07,.28,.13,.43,.17,.45,.09,.93,.06,1.47-.19-.99,.81-2.25,1.34-3.41,1.57-.51,.1-1.04,.15-1.56,.12-.38-.02-.76-.09-1.12-.2-.28-.09-.54-.22-.79-.38-.12-.08-.24-.17-.35-.28h0c.8,.84,2,1.12,3.11,1.13h.09c1.27,0,2.54-.35,3.59-1.06,.53-.35,.99-.81,1.31-1.36,.1-.17,.18-.35,.26-.54l.04-.06c.03-.06,.06-.12,.1-.18-.06,.21-.15,.42-.27,.62-.34,1.62-1.89,2.67-3.23,3.11h0Z"/><path class="b" d="M91.62,31.47c-.1,0-.2,0-.3,0-.27,0-.54-.03-.81-.05l-.26-.02c-.11-.11-.06-.06-.12-.12-.17-.42-.39-.78-.87-1.24l-.29-.27-.08-.07c-.17-.16-.35-.32-.47-.51-.19-.29-.31-.58-.36-.88-.09-.57,.06-1.24,.27-1.79,.03,.98,.55,1.95,1.47,2.33,.2,.08,.43,.13,.66,.12,.23,0,.47-.08,.66-.23,.19-.14,.36-.38,.36-.65,0-.26-.13-.57-.41-.68,.27,.14,.37,.44,.33,.68-.03,.24-.2,.42-.38,.52-.37,.21-.76,.11-1.06-.08-.3-.19-.53-.48-.68-.83-.14-.36-.21-.79-.12-1.27v-.08c.21-.96,.84-1.82,1.42-2.59,.11-.15,1.17-1.42,1.7-1.95v9.66c-.22,.01-.44,.02-.65,.02h0Z"/><path class="b" d="M92.27,19.42c-.53,.54-1.3,1.14-1.73,1.46-.1,.08-.2,.15-.3,.22-.51,.38-1.04,.77-1.45,1.24-.2,.25-.36,.51-.52,.77l-.13,.21c-.11,.17-.22,.33-.32,.48,.48-3.62,1.44-7.49,3.02-10.9,.07-.15,.14-.3,.21-.44h0c.32-.64,.67-1.26,1.07-1.87h0c-.55,.66-1.05,1.35-1.48,2.07-.45,.74-.82,1.51-1.14,2.3-1.14,2.79-1.64,6.04-1.78,9-.2,.26-.24,.3-.26,.32h-.01l.03-.11c.04-.14,.07-.29,.07-.45,0-.16,0-.29-.03-.41-.02-.11-.04-.22-.07-.33l-.03-.14-.02-.08c-.06-.27-.12-.56-.16-.84-.02-.11-.03-.22-.05-.33-.03-.2-.07-.4-.08-.6,0-.09-.01-.18-.01-.27-.02-.08-.04-.15-.05-.23,.13-1.37,.27-2.74,.48-4.11,1-6.32,2.74-8,4.18-12.5h0c-.11,.25-.23,.5-.35,.74h0c-1.25,2.52-2.84,4.67-3.75,7.94-.27,.96-.45,1.93-.58,2.9-.16,1.2-.24,2.4-.28,3.6-.3-1.65-.41-3.24-.33-4.73,.3-5.14,1.63-7.45,3.85-11.11,.66-1.09,1.31-2.16,1.82-3.24h.21V19.42h0Z"/><path class="b" d="M82.18,3.6c-.07,.19-.14,.37-.22,.55h0c-.18,.44-.39,.87-.63,1.27,.02-.6,.07-1.2,.15-1.79v.02c.08-.63,.2-1.25,.35-1.86,.15-.61,.33-1.2,.54-1.79h1.22c-.43,.86-.75,1.79-1.07,2.7-.11,.3-.22,.6-.34,.9h0Z"/><path class="b" d="M81.73,1c-.03-.33-.06-.66-.07-1h.34c-.1,.33-.19,.67-.27,1h0Z"/><path class="b" d="M83.6,2.94c-.2,.38-.39,.76-.56,1.15-.03,.08-.07,.15-.1,.23-.03,.08-.07,.16-.1,.24-.03,.07-.06,.14-.09,.21h0c-.07,.17-.14,.35-.2,.52-.03,.08-.06,.16-.09,.25-.03,.09-.06,.17-.09,.26,.02-.21,.03-.43,.02-.68v-.03c-.02-.38-.08-.76-.14-1.12,.31-.61,.57-1.25,.84-1.87,.28-.66,.57-1.32,.9-1.95,.03-.05,.06-.1,.09-.16h1.6c-.24,.26-.47,.53-.69,.81-.52,.67-.99,1.38-1.39,2.13h0Z"/><path class="b" d="M88.12,2.69c-.73,.59-1.53,1.05-2.14,1.39-.2,.11-.41,.22-.61,.33-.45,.24-.93,.49-1.38,.77h-.03v.02l-.03,.02c-.58,.37-1.03,.74-1.4,1.14h0c-.07,.07-.13,.15-.19,.22,.03-.07,.06-.14,.09-.21h0c.08-.18,.17-.37,.25-.56,.07-.15,.13-.3,.2-.45,.05-.11,.11-.23,.16-.34,.06-.13,.13-.26,.19-.4,.71-1.44,1.54-2.83,2.52-4.11,.14-.18,.28-.35,.43-.52h3.96c-.09,.2-.19,.4-.31,.63-.41,.78-1,1.5-1.7,2.07h0Z"/><rect class="b" x="82.12" y="6.55" width="0" height="0" transform="translate(59.96 85.89) rotate(-78.96)"/><rect class="b" x="82.12" y="6.56" width="0" height="0"/><rect class="b" x="78.13" y="9.38" width="0" height="0" transform="translate(35.07 75.24) rotate(-63.67)"/><rect class="b" x="81.86" y="13.97" width="0" height=".03" transform="translate(-.64 23.5) rotate(-16.27)"/><rect class="b" x="81.85" y="13.97" width="0" height="0" transform="translate(-.82 21.69) rotate(-15.02)"/><rect class="b" x="54.64" y="35.61" width=".01" height="0" transform="translate(-10.55 37.65) rotate(-34.88)"/><polygon class="b" points="69.36 1.61 69.35 1.62 69.36 1.61 69.36 1.61"/><path class="b" d="M78.19,11.81h0s-.03-.04,0,0h0Z"/><polygon class="b" points="78.19 11.81 78.19 11.81 78.19 11.81 78.19 11.81"/><path class="b" d="M69.7,20.53s-.03,.1-.05,.15v-.06l.05-.08h0Z"/><rect class="b" x="70.18" y=".42" width="0" height="0" transform="translate(23.89 53.17) rotate(-49.08)"/><path class="b" d="M67.6,5.23c-.13,.97,.48,1.87,1.22,2.51,.92,1.51,2.88,3.02,2.76,6.45-.04,1.1-.27,2.19-.67,3.15-.13,.31-.28,.63-.43,.93l-.02,.04c.02-.12,.04-.23,.06-.35,.12-.83,.07-1.67-.1-2.49-.16-.81-.46-1.59-.77-2.36-.35-.88-.71-1.75-1.02-2.64-.05-.14-.09-.28-.13-.42h0c.16,1.14,.44,2.24,.76,3.34,.28,.95,.59,1.9,.76,2.88,.12,.72,.15,1.45,.08,2.17-.07,.67-.22,1.32-.41,1.96,0-.2,.03-.41,.06-.63,.19-.5,.27-1.04,.25-1.57-.02-.61-.17-1.22-.37-1.8-.22-.64-.5-1.25-.8-1.86-.58-1.15-1.29-2.24-1.84-3.41-.24-.53-.44-1.07-.55-1.65-.05-.32-.07-.65-.04-.97h0c.02-.19,.05-.37,.1-.55h0c-.22,.52-.31,1.08-.3,1.64,.01,.61,.15,1.22,.34,1.79,.43,1.29,1.13,2.47,1.79,3.65,.26,.45,.5,.91,.72,1.38,.25,.54,.45,1.11,.55,1.69,.01,.09,.02,.17,.03,.26-.03-.14-.07-.28-.11-.42h0c-.16-.5-.42-1.01-.77-1.56-.34-.51-.73-.99-1.2-1.54l-.11-.13c-.43-.51-.88-1.03-1.27-1.58-.38-.54-.86-1.26-1.15-2.05-.36-.98-.51-2.03-.43-3.03,.04-.53,.16-1.06,.33-1.58,.09-.28,.2-.54,.29-.74-.37,.76-.64,1.53-.8,2.3-.14,.74-.19,1.52-.14,2.32v-.04c.07,.94,.26,1.93,.61,3.11,.14,.48,.3,.96,.45,1.42,.19,.59,.39,1.2,.56,1.81,.31,1.14,.53,2.28,.65,3.39,.14,1.25,.19,2.45,.13,3.59-.06,1.27-.22,2.36-.47,3.34-.25,.98-.63,1.96-1.16,2.99-.9,1.77-2.18,3.46-3.8,5.03-1.49,1.44-2.96,2.57-4.48,3.44-.51,.29-1.04,.58-1.55,.85-.95,.51-1.93,1.04-2.84,1.65-.8,.54-1.39,1.04-1.87,1.57-.34,.39-.6,.77-.81,1.17-.09,.18-.16,.35-.22,.51h-.02c.03-.15,.06-.3,.1-.44-.02,.04-.04,.08-.07,.12,.08-.2,.14-.41,.18-.61,.07-.37,.09-.77,.06-1.18-.05-.71-.22-1.44-.55-2.39-.17-.48-.36-.96-.54-1.43-.3-.76-.61-1.55-.84-2.36-.41-1.46-.59-2.93-.55-4.37,.03-1.09,.2-2.25,.5-3.45,.24-.96,.53-1.83,.88-2.65,.75-1.76,1.78-3.36,3.08-4.74,.62-.67,1.32-1.29,2.07-1.84,.48-.35,.92-.65,1.35-.89-.31,1.14-.45,2.34-.58,3.51-.09,.78-.16,1.56-.29,2.33-.16,.96-.4,1.91-.81,2.8-.27,.58-.61,1.12-1.02,1.61h.01c-.28,.32-.58,.62-.91,.9h0c.65-.44,1.22-.97,1.71-1.59,.47-.6,.83-1.26,1.14-1.96,.62-1.42,.92-2.96,1.16-4.48,.13-.82,.24-1.64,.38-2.45,.07-.39,.14-.79,.23-1.18,.1-.04,.2-.08,.3-.12,.56-.21,1.17-.37,1.89-.51,0,.08-.01,.16-.01,.24-.04,1.03-.02,2.07-.04,3.1-.02,.74-.07,1.47-.17,2.21-.04,.26-.07,.53-.11,.79-.3,1.74-.8,3.46-1.54,5.06-.45,.96-.98,1.88-1.66,2.7-.4,.47-.84,.9-1.34,1.25-.3,.21-.62,.39-.96,.53h0c1.3-.43,2.35-1.4,3.19-2.46,.99-1.25,1.73-2.67,2.32-4.14,.57-1.41,1-2.88,1.19-4.39,.11-.86,.12-1.74,.1-2.61-.01-.81-.07-1.62-.11-2.43,.12-.02,.24-.04,.36-.05,.27-.04,.53-.08,.8-.12,.09-.01,.18-.03,.26-.05,.12,.89,.25,1.77,.34,2.66,.09,1,.11,1.99,.05,2.99-.05,.84-.15,1.67-.29,2.5-.33,1.87-.88,3.68-1.66,5.4-.58,1.25-1.32,2.44-2.2,3.5-.66,.78-1.42,1.49-2.25,2.09h-.02c-.71,.51-1.48,.92-2.3,1.23h.01c-.38,.14-.77,.26-1.16,.35h0c1.5-.21,2.94-.79,4.21-1.62,1.31-.85,2.43-1.95,3.39-3.18,1-1.27,1.8-2.69,2.44-4.18,.31-.72,.59-1.46,.81-2.22,.23-.79,.41-1.59,.54-2.41,.12-.72,.2-1.46,.21-2.19,.02-1.04-.08-2.08-.27-3.1-.25-1.33-.69-2.62-1.06-3.92,0-.15-.02-.3-.03-.45-.02-.32-.05-.64-.07-.96-.12-1.57-.25-3.2-.09-4.8,.1-1,.31-1.98,.62-2.9,.28-.83,.62-1.67,1.02-2.5,.51-1.07,1.04-1.98,1.6-2.78h3.55c-.87,1.57-1.19,3.65-.47,5.23h0Z"/><path class="b" d="M69.56,.8c-1.65,1.96-1.45,4.96,.26,7.11-.58-.48-1.3-1.14-1.67-1.8,.08,.09,.16,.17,.25,.26h0c-.08-.1-.16-.2-.23-.31h0c-.3-.46-.46-.98-.11-1.78h0s.04-.09,.06-.13h0c-.09,.09-.16,.19-.23,.3-.08,.13-.15,.27-.2,.41v.02c-.36-1.5,.06-3.37,.85-4.87h1.87c-.28,.22-.59,.49-.85,.8h0Z"/><path class="b" d="M79.46,3.8c.03,.88-.44,1.74-1.33,2.16-.27,.03-.54,.03-.81,0-.28-.03-.56-.09-.82-.18-.2-.08-.38-.17-.56-.29-.14-.1-.26-.21-.37-.34-.06-.07-.1-.15-.15-.23-.05-.13-.09-.27-.12-.4-.04-.36-.01-.66,.1-1,.12-.29,.22-.42,.37-.57,.15-.11,.22-.14,.38-.18,.16-.02,.24-.01,.4,.04,.22,.09,.36,.2,.53,.37,.14,.18,.19,.3,.23,.47,0,.05,0,.1,0,.15,0,.05-.02,.1-.04,.15-.02,.06-.05,.11-.08,.16-.03,.04-.06,.08-.1,.11-.06,.04-.12,.08-.18,.11-.19,.08-.43,.12-.59,0h0l-.06-.05s.11,.41,.75,.22c.35-.1,.6-.39,.69-.74,.09-.37-.05-.77-.23-1.09-.44-.76-1.36-1.18-2.37-.68-.46,.23-.77,.69-.94,1.16-.6,1.65,.94,3.71,3.95,3.01,.32,.09,.62,.22,.88,.39,.1,.07,.2,.14,.3,.21,.23,.12,.41,.23,.56,.35,.42,.33,.79,.76,1.1,1.28l.02,.04c.26,.35,.5,.73,.71,1.13,.19,.35,.33,.68,.43,1.02,.14,.46,.22,.96,.22,1.49,0,.5-.08,1.02-.26,1.55-.12-.48-.28-.95-.52-1.39-.47-.87-1.17-1.61-1.95-2.21-.37-.29-.77-.53-1.19-.72-.43-.19-.9-.3-1.37-.32h0c.08,.02,.15,.03,.23,.05,.3,.07,.58,.19,.85,.33h.01c.54,.31,1.01,.71,1.45,1.13,.63,.62,1.22,1.28,1.68,2.04,.26,.45,.45,.93,.59,1.42h0s.02,.09,.03,.14c-.46,1.12-.87,1.53-1.35,2.27,.11-1.27-.1-2.43-.8-3.55-.4-.64-.96-1.19-1.58-1.62-.77-.52-1.66-.85-2.56-1.03h0c.36,.15,.71,.31,1.04,.49h0c1.15,.63,1.98,1.42,2.59,2.44,.69,1.19,1.01,2.52,.87,4.02-.22,.4-.46,.85-.57,1.26,0-.09-.02-.19-.02-.29-.02,.13-.05,.26-.09,.39,.03-.18,.05-.37,.07-.55-.02-.18-.03-.39-.02-.6,0-.16,.02-.31,.05-.47-.03-.52-.13-1.02-.28-1.49-.16-.48-.38-.95-.67-1.4-.85-1.27-2.06-2.14-3.41-2.83l.05,.03c-1.63-.82-3.11-1.28-4.52-2.68-.22-.63-.38-1.23-.43-1.93-.02-.46,.01-.92,.11-1.38,.1-.45,.27-.89,.48-1.31,.52-1,1.23-1.68,1.14-1.63-1.32,.97-1.88,2-2.03,3.04-.09,.58-.02,1.18,.12,1.74,.12,.5,.33,1.02,.56,1.49-.57-.44-.67-.49-.86-.82h0c-1.49-2.3-1.43-5.22,.41-7.31,.13-.15,.28-.29,.43-.42h4.81c.18,.07,.35,.13,.53,.2,1.72,.65,3.45,1.76,3.51,3.6h0Z"/><polygon class="b" points="54.61 35.64 54.63 35.63 54.64 35.62 54.61 35.64 54.61 35.64"/><polygon class="b" points="23.69 48.4 23.68 48.41 23.68 48.42 23.69 48.4 23.69 48.4"/><polygon class="b" points="28.27 44.19 28.26 44.19 28.27 44.18 28.27 44.19 28.27 44.19"/><path class="b" d="M20.5,49.09c.28-.6,.55-1.07,.85-1.46,.38-.5,.79-.94,1.2-1.3,.44-.39,.97-.75,1.55-1.09,.7-.41,1.46-.7,2.22-.86-.49,.22-.94,.53-1.33,.89-.59,.55-1.06,1.22-1.46,1.92-1.06,1.88-1.62,4.08-1.33,6.24,.07,.49,.18,.97,.34,1.44,.15,.44,.35,.86,.56,1.27,.43,.8,.96,1.55,1.46,2.3,.43,.65,.84,1.31,1.16,2.02-.27-.83-.67-1.62-1.09-2.38-.43-.78-.87-1.55-1.22-2.36-.82-1.98-.96-4.32,.27-7.31,1.39-3.22,2.7-3.86,4.72-4.23,.5,0,1,.05,1.5,.13,1.91,.31,3.75,1.25,4.83,2.9,.63,.96,.92,2.1,.9,3.23,0,.43-.03,.87-.13,1.29-.07,.3-.13,.62-.23,.91-.21,.64-.7,1.19-1.3,1.5-.81,.42-1.79,.44-2.67,.21-1.04-.27-2.32-.84-2.8-1.86-.6-1.29,.37-3.31,1.82-3.36,.93,.11,2.23,1.43,.98,2.09h0c-.05,.02-.15,.07-.2,.07-.06,0-.11-.08-.18-.13-.02-.02,.08,.18,.15,.21,.19,.08,.89-.04,1.18-.54,.34-.58,.06-1.32-.26-1.84-.37-.61-1.01-1.16-1.74-1.27-5.19-.8-5.38,9.67,5.44,8.78,2.44,.26,5.06-.7,7.24-1.81,1.04-.53,1.89-1.01,2.65-1.52,1.25-.85,2.53-1.91,3.9-3.22,.71-.68,1.42-1.4,2.1-2.09l.25-.26c.21-.21,.41-.42,.62-.63,.56-.57,1.13-1.15,1.71-1.71,.85-.81,1.66-1.49,2.49-2.08,.14-.1,.28-.19,.41-.29-1.13,1.13-2.19,2.34-3.2,3.57-.61,.74-1.2,1.49-1.79,2.25-.58,.74-1.16,1.49-1.78,2.2-1.52,1.75-3.19,3.38-5.02,4.8l-.03,.02c-1.49,1.14-3.1,2.14-4.83,2.87h.03c-1.25,.51-2.56,.9-3.91,1.08h.01c-.49,.06-.98,.1-1.47,.11,.17,.01,.34,.02,.51,.02,1.72,0,3.43-.36,5.05-.94,1.86-.67,3.61-1.63,5.23-2.75,1.63-1.12,3.15-2.42,4.53-3.83,.64-.66,1.26-1.36,1.84-2.07,.62-.76,1.24-1.51,1.85-2.27,1.91-2.35,3.82-4.72,6.01-6.83,2.17-1.04,4.38-1.71,6.69-2.17-3.11,.96-5.04,2.28-7.25,4.48-.56,.55-1.09,1.13-1.62,1.7-1.14,1.25-2.23,2.55-3.33,3.84-2.3,2.72-4.61,5.45-7.24,7.86-.73,.66-1.47,1.3-2.25,1.91-1.43,1.09-2.95,2.06-4.61,2.77-1.07,.45-2.18,.78-3.32,.97h-.07c-.09,.02-.18,.04-.27,.05-1.19,.15-2.39,.15-3.57,0-.73-.1-1.46-.26-2.17-.46h0c1.52,.55,3.11,.85,4.72,.85,.12,0,.24,0,.35,0,.32,0,.63-.03,.94-.06h.07c1.26-.14,2.5-.46,3.68-.92,3.19-1.25,5.9-3.45,8.31-5.83,2.53-2.5,4.78-5.26,7.07-7.98,.89-1.07,1.79-2.13,2.72-3.17,2.93-3.28,4.71-4.71,9.58-6.16-.29,.11-.58,.23-.86,.35-.55,.24-1.08,.55-1.61,.84-.53,.3-1.07,.6-1.59,.91-.49,.29-.94,.64-1.38,.99-.82,.66-1.47,1.5-2.28,2.16-.08,.06-.16,.12-.25,.17-.13,.08-.23,.2-.3,.32-.55,.48-1.07,.98-1.53,1.5l.06-.06-.06,.07c-.39,.47-.76,.96-1.12,1.45-.11,.15-.22,.29-.32,.44-.5,.67-1.01,1.33-1.52,2-1.23,1.6-2.19,2.81-3.12,3.93-.92,1.11-2.01,2.4-3.18,3.62-.96,.99-1.96,1.91-2.99,2.73-2.96,2.35-7.59,5.16-12.87,5.16-.62,0-1.24-.04-1.84-.12-1.32-.17-2.63-.53-3.88-1.06-1.31-.56-2.37-1.18-3.26-1.91-.89-.74-1.66-1.54-2.28-2.38-.75-1.03-1.3-1.98-1.69-2.91-.92-2.25-1.15-4.5-.68-6.51,.12-.49,.28-.96,.48-1.39h0Z"/><polygon class="b" points="28.24 44.19 28.26 44.19 28.25 44.19 28.24 44.19 28.24 44.19"/><polygon class="b" points="23.69 48.39 23.69 48.4 23.71 48.34 23.69 48.39 23.69 48.39"/><polygon class="b" points="45.3 55.71 45.27 55.74 45.28 55.73 45.31 55.71 45.3 55.71 45.3 55.71"/><rect class="b" x="45.31" y="55.71" width="0" height="0" transform="translate(-25.11 41.67) rotate(-39.6)"/><path class="b" d="M67.06,28.68c-.06-.73-.03-1.48,.1-2.28,.11-.71,.33-1.42,.66-2.17,.62-1.4,1.64-2.59,2.88-3.34,.67-.4,1.41-.69,2.15-.83,.49-.09,.96-.14,1.4-.14,.25,0,.49,.02,.71,.04,4.03,.51,5.7,4.55,4.73,7.29-.36,1.02-1.03,1.82-1.9,2.25h-.02c-.13,.05-.26,.08-.39,.11-.3,.05-.6,.07-.9,.05-.35-.03-.68-.11-1.01-.23-.31-.12-.61-.28-.88-.46-.26-.19-.49-.4-.7-.64-.17-.21-.31-.43-.43-.66-.07-.17-.13-.34-.17-.52-.02-.15-.03-.29-.02-.44,.02-.18,.06-.35,.11-.52,.1-.25,.24-.5,.39-.72,.1-.13,.2-.25,.32-.36,.09-.07,.19-.14,.29-.19,.11-.05,.22-.08,.33-.11,.13-.02,.26-.03,.38-.02,.13,.02,.27,.04,.39,.08,.11,.04,.22,.1,.31,.16,.08,.06,.14,.12,.21,.19,.04,.06,.08,.11,.11,.18,.03,.06,.05,.13,.07,.2,.01,.08,.02,.15,0,.23-.01,.09-.03,.17-.06,.26v.04h0c.47-.41,.45-1.04,.14-1.55-.4-.66-1.2-.98-1.94-.98-.89,0-1.72,.55-2.24,1.24-.46,.61-.72,1.3-.71,2.07,.03,1.3,.96,2.38,2.07,2.93,.53,.26,1.1,.42,1.68,.49-.08,.26-.15,.53-.19,.81-.07,.49-.08,.97-.04,1.44,.05,.39,.15,.78,.28,1.14,.11,.28,.26,.56,.43,.84-.35-.19-.69-.38-1.03-.58-.69-.41-1.35-.85-1.97-1.35-.64-.53-1.24-1.11-1.72-1.78-.31-.43-.57-.9-.76-1.39-.12-.33-.22-.67-.27-1.02h0c.06,.93,.41,1.8,.87,2.6,.49,.84,1.11,1.6,1.83,2.25,.58,.53,1.24,.97,1.94,1.33,.53,.28,1.08,.51,1.66,.69,.4,.49,.83,.93,1.31,1.31,.32,.24,.64,.45,.98,.62-1.05-.18-2.08-.52-3.06-.94-1.23-.54-2.4-1.24-3.45-2.09-.72-.59-1.36-1.26-1.91-2.01-.49-.69-.92-1.43-1.23-2.23h0c-.16-.42-.29-.86-.34-1.31h0c-.03-.25-.03-.52,0-.78h0c.01-.07,.02-.14,.04-.22h0c-.24,.76-.12,1.58,.09,2.33,.24,.85,.64,1.66,1.1,2.42,.47,.77,1.02,1.47,1.67,2.08,.75,.71,1.6,1.32,2.52,1.8,2.06,1.1,4.16,1.44,5.55,1.28,.9,.19,1.64-.02,2.26-.51h.03c-.46,.42-1.02,.68-1.63,.74-.1,.01-.2,.02-.3,.02-.67,.15-1.36,.23-2.04,.23-.13,0-.26,0-.39,0-1.66-.07-3.33-.57-4.81-1.45-.79-.46-1.49-.98-2.1-1.54-.65-.59-1.24-1.27-1.76-2.02-.47-.67-.84-1.39-1.12-2.16-.26-.71-.41-1.43-.48-2.21h0Z"/><rect class="b" x="34.26" y="37.12" height="0" transform="translate(-15.61 45.18) rotate(-56.48)"/><rect class="b" x="34.26" y="37.12" width="0" height="0" transform="translate(-16.16 33.98) rotate(-43.73)"/><path class="b" d="M31.78,33.33c.58-.15,1.13-.22,1.65-.22,.33,0,.65,.03,.95,.09,.92,.18,1.69,.69,2.12,1.4,.25,.41,.4,.89,.46,1.44,.05,.5,0,1.03-.14,1.5-.12,.39-.3,.76-.5,1.06-.03,.03-.07,.07-.1,.1-.34,.31-.71,.59-1.12,.82-.28,.15-.58,.27-.89,.34-.2,.04-.41,.06-.61,.06-.14-.01-.29-.04-.43-.08-.12-.04-.24-.1-.35-.16-.15-.1-.29-.23-.42-.36-.09-.1-.16-.2-.23-.31-.05-.1-.09-.2-.12-.31-.02-.11-.03-.23-.03-.34,.01-.14,.04-.28,.07-.41,.05-.14,.11-.27,.18-.39,.08-.12,.17-.22,.27-.32,.09-.08,.19-.16,.3-.22,.1-.05,.21-.09,.32-.12,.11-.02,.21-.03,.32-.03,.12,0,.23,.03,.35,.06,.15,.05,.29,.12,.42,.2h0c.11,.07,.2,.15,.3,.23h0c-.2-.3-.43-.55-.73-.74-.27-.16-.58-.23-.9-.23-.65,0-1.27,.39-1.65,.89-.47,.61-.6,1.43-.31,2.15,.28,.69,.93,1.26,1.64,1.48,.29,.09,.57,.14,.86,.14,.06,0,.12,0,.18,0,.31-.02,.63-.11,.91-.23,.62-.26,1.15-.69,1.61-1.16,.26-.26,.49-.55,.71-.85,.28,0,.56-.02,.84-.07,.46-.07,.9-.2,1.31-.38,.39-.18,.76-.4,1.11-.67,.39-.31,.77-.71,1.12-1.17,.19-.25,.36-.52,.54-.81-.11,.33-.22,.67-.34,1-.23,.64-.5,1.27-.83,1.87-.45,.77-1,1.48-1.63,2.12h0c-.54,.53-1.12,1.02-1.78,1.42-.41,.24-.84,.44-1.29,.57h0c-.34,.1-.69,.15-1.05,.16-.29,0-.58-.04-.86-.11h0c-.17-.05-.34-.11-.51-.18h0c.29,.16,.6,.27,.93,.33,.2,.04,.4,.05,.61,.05,.12,0,.24,0,.36-.02,.69-.06,1.35-.3,1.96-.62,.65-.34,1.25-.78,1.8-1.27,.54-.48,1.03-1.01,1.46-1.58,.3-.4,.56-.83,.78-1.27,.31-.63,.55-1.29,.76-1.96,.24-.82,.43-1.65,.61-2.48,.01-.04,.03-.07,.04-.11,.23-.57,.45-1.16,.66-1.76,.24-.69,.48-1.39,.72-2.08,.28-.82,.63-1.77,1.15-2.66,.45-.78,1.01-1.54,1.65-2.26l.05-.06c-.45,.58-.82,1.23-1.11,1.91-.34,.78-.59,1.6-.8,2.42-.21,.83-.37,1.67-.52,2.51-.23,1.27-.42,2.55-.75,3.8-.33,1.22-.82,2.38-1.44,3.48-.49,.84-1.07,1.63-1.75,2.33-.59,.59-1.25,1.12-1.97,1.55-.31,.18-.63,.35-.96,.49-.3,.13-.6,.23-.91,.32-.72,.2-1.46,.32-2.21,.33-.48,0-.97-.04-1.44-.16-.29-.08-.57-.19-.83-.33-.2-.12-.38-.25-.54-.41-.06-.06-.11-.12-.16-.18h0c.39,.55,.99,.89,1.62,1.08,.57,.18,1.18,.24,1.77,.24,.15,0,.3,0,.44-.01,.74-.03,1.47-.16,2.18-.37,.79-.23,1.54-.61,2.23-1.05,.78-.49,1.48-1.09,2.11-1.76,.62-.66,1.16-1.39,1.61-2.17,.45-.77,.84-1.58,1.12-2.43,.27-.81,.44-1.66,.59-2.5,.36-2.13,.47-4.32,1.01-6.42v-.04c.24-.85,.54-1.68,.98-2.45,.28-.48,.61-.93,1-1.33,.12-.12,.26-.24,.4-.35-.43,.67-.84,1.34-1.22,2.01-.04,.08-.07,.17-.11,.26-.41,1.04-.68,2.2-.84,3.55-.11,.99-.14,2.01-.17,2.99-.03,.98-.06,1.99-.17,2.98h0v.03l-.02,.12-.02,.16-.02,.18c-.24,1.98-.81,3.65-1.7,4.98-.59,.88-1.2,1.57-1.87,2.12-.74,.61-1.45,1.08-2.15,1.43-.88,.44-1.7,.75-2.5,.96-.91,.24-1.82,.36-2.68,.36-.47,0-.96-.04-1.46-.13-.43-.07-.8-.17-1.14-.31-.51-.19-.93-.38-1.31-.63-.42-.28-.8-.58-1.13-.91-.57-.57-1.06-1.21-1.44-1.89-.21-.37-.4-.78-.56-1.22-.13-.35-.22-.67-.28-.98-.08-.41-.15-.85-.13-1.29,.02-.51,.07-.91,.18-1.27,.14-.47,.3-.85,.5-1.17,.27-.42,.54-.75,.83-1,.41-.36,.78-.61,1.15-.79,.49-.23,.91-.39,1.32-.5h0Z"/><rect class="b" x="34.25" y="37.12" width="0" height="0" transform="translate(-15.75 44.23) rotate(-55.39)"/><rect class="b" x="34.26" y="37.12" width="0" height="0" transform="translate(-15.53 45.68) rotate(-57.06)"/><polygon class="b" points="46.37 27.39 46.37 27.43 46.36 27.46 46.37 27.39 46.37 27.39"/><rect class="b" x="46.35" y="27.47" width=".02" height="0" transform="translate(8.29 65.61) rotate(-75.71)"/><path class="b" d="M48.8,23.19c-.08,.05-.16,.1-.24,.15-.09,.06-.17,.12-.25,.18,.04-.04,.09-.09,.13-.13l.35-.34,.1-.1-.03,.04,.16-.14c-.08,.12-.15,.24-.23,.36h0Z"/><path class="b" d="M50.1,5.69c-.09,.68-.24,1.35-.41,2.01-.19,.74-.43,1.46-.72,2.17-.52,1.2-1.19,2.32-1.99,3.35-1.36,1.73-3.04,3.17-4.77,4.51l-.03,.03h.02c-2.4,1.84-4.9,3.57-7.1,5.66h0c.18-.14,.36-.28,.53-.41h0c1.32-1.02,2.71-1.94,4.12-2.85,1.33-.86,2.68-1.69,3.98-2.6,1.27-.89,2.5-1.85,3.58-2.96,1.12-1.15,2.07-2.45,2.79-3.88,.4-.81,.74-1.65,1.01-2.51,.25-.8,.43-1.62,.54-2.45,.18-1.38,.18-2.77,.18-4.15,0-.53,0-1.06,0-1.59h1.42c.09,.32,.18,.63,.27,.94l.07,.22c.23,.78,.47,1.61,.64,2.46,.17,.85,.24,1.74,.21,2.67-.03,1.02-.16,2.01-.38,2.94-.22,.94-.54,1.91-.95,2.86-.78,1.83-1.81,3.49-3.06,4.92-1.22,1.39-2.75,2.64-4.82,3.92-.9,.55-1.83,1.08-2.73,1.59l-.1,.06c-.91,.52-1.8,1.05-2.62,1.54l-.52,.31c-1.12,.67-2.28,1.35-3.28,2.23h.02v-.02h.01c-.47,.42-.83,.83-1.11,1.24-.2,.3-.35,.61-.46,.94-.08,.26-.13,.51-.14,.75,0,.19,0,.37,.03,.57l.09,.08,.02,.02v.02h0c-.27-.1-.42-.39-.56-.64l-.06-.11c-.06-.1-.12-.21-.18-.31-.09-.16-.18-.32-.27-.48-.29-.53-.56-1.08-.8-1.62-.62-1.42-1.1-2.95-1.44-4.56-.34-1.64-.5-3.26-.46-4.81,.04-1.85,.29-3.45,.75-4.89,.55-1.69,1.3-3.16,2.25-4.38,1.08-1.39,2.47-2.5,4.01-3.2,.8-.36,1.65-.64,2.48-.91,.97-.31,1.97-.64,2.89-1.11,.63-.33,1.21-.74,1.76-1.23,.18-.17,.33-.32,.48-.46-.05,.12-.11,.24-.16,.35-.57,1.26-1.11,2.54-1.7,3.79-.6,1.27-1.31,2.49-2.17,3.61-.76,.97-1.62,1.86-2.6,2.62h.01c-.74,.56-1.54,1.05-2.38,1.47h0c.8-.34,1.56-.75,2.29-1.23,.69-.46,1.33-.99,1.93-1.56,1.22-1.17,2.23-2.55,3.07-4.02,.44-.77,.82-1.56,1.2-2.37,.34-.73,.66-1.47,.98-2.2,.3-.68,.61-1.36,.94-2.02h1.68c-.29,1.11-.51,2.24-.74,3.37-.14,.73-.28,1.46-.46,2.18-.19,.74-.43,1.46-.72,2.16-.52,1.23-1.21,2.38-2.03,3.44l.02-.02c-1.34,1.73-2.97,3.19-4.69,4.52h0c-.68,.52-1.37,1.02-2.07,1.52h0c2.38-1.59,4.72-3.32,6.62-5.48,.93-1.05,1.74-2.21,2.38-3.46,.34-.65,.62-1.33,.86-2.03,.24-.69,.4-1.41,.56-2.12,.28-1.26,.54-2.52,.85-3.77,.03-.11,.05-.21,.08-.32h1.43c-.06,.63-.1,1.26-.13,1.9-.07,1.26-.1,2.53-.26,3.79h0Z"/><path class="b" d="M8.26,15.74c.82-.37,1.7-.7,2.61-.99,1.14-.36,2.09-.62,2.98-.81,.92-.19,1.86-.36,2.8-.49,.9-.13,1.83-.23,2.82-.33,.88-.08,1.54-.2,2.15-.37,.86-.28,1.65-.63,2.34-1.04,.6-.38,1.1-.78,1.53-1.22,.34-.37,.62-.74,.84-1.13,.19-.36,.34-.74,.45-1.15,.05-.24,.09-.48,.11-.73,.01,.08,.03,.15,.04,.23h0c.03,.33,.02,.67-.03,1-.07,.44-.2,.86-.38,1.27-.35,.78-.83,1.49-1.36,2.15-1.02,1.25-2.23,2.35-3.53,3.3-.46,.33-.93,.64-1.42,.9-.54,.28-1.1,.52-1.67,.75-1.24,.48-2.5,.88-3.77,1.27-1.39,.43-2.78,.85-4.15,1.33-1.33,.47-2.65,1.01-3.89,1.7-1.14,.64-2.2,1.43-3.05,2.42-.73,.87-1.26,1.88-1.56,2.98h0c.09-.27,.19-.54,.3-.8h0c.27-.6,.61-1.15,1.02-1.67h0c.48-.59,1.04-1.11,1.65-1.56h0c1.01-.73,2.14-1.29,3.3-1.75,2.67-1.05,5.49-1.6,8.25-2.36,1.27-.35,2.52-.74,3.72-1.29,.52-.24,1.02-.54,1.5-.86,.6-.41,1.17-.87,1.71-1.36,.59-.53,1.12-1.11,1.62-1.73,.48-.59,.9-1.23,1.25-1.9,.61-1.2,1.02-2.6,.65-3.94-.05-.16-.11-.32-.17-.48,0-.06,0-.11,0-.17,0-.1-.01-.21-.03-.31h0v-.03c-.02-.1-.03-.19-.04-.29,.08,.16,.17,.36,.25,.56,.05,.07,.1,.13,.14,.21-.05-.11-.11-.23-.16-.34,.17,.28,.34,.56,.49,.85,.04,.17,.07,.34,.09,.52v.02c.07,.64,.05,1.28-.04,1.92-.16,1.02-.48,2.01-.89,2.97-.6,1.35-1.38,2.61-2.3,3.76-.72,.88-1.54,1.66-2.45,2.34-1.34,.96-2.82,1.69-4.36,2.3h.02c-1.62,.63-3.28,1.16-4.89,1.81-1.63,.66-3.2,1.46-4.55,2.59-.18,.15-.36,.31-.53,.47h0c.13-.1,.26-.2,.4-.3h0c1.02-.75,2.15-1.33,3.33-1.8,3.29-1.29,6.88-1.74,10.04-3.38,.83-.43,1.61-.96,2.32-1.56,.69-.58,1.29-1.25,1.83-1.96,.54-.71,1.01-1.47,1.4-2.27,.37-.75,.67-1.53,.89-2.34-.03,.34-.07,.67-.11,1.01-.22,1.44-.62,2.84-1.2,4.18h0c-.51,1.15-1.15,2.24-1.93,3.22h0l-.03,.03c-.65,.79-1.4,1.49-2.22,2.1-2.43,1.76-5.3,2.72-7.9,4.2h0c1.53-.8,3.14-1.43,4.73-2.12,.78-.34,1.55-.7,2.3-1.1,.75-.4,1.47-.87,2.14-1.39,2.92-2.26,4.58-5.94,4.67-9.6,.02-.74-.03-1.49-.13-2.22,.07-.78,.05-1.56-.1-2.32,.33,.72,.61,1.48,.83,2.25,.39,1.33,.64,2.78,.76,4.42,.08,1.02,.12,2.1,.11,3.21,0,.93-.02,1.84-.12,2.74-.11,1.08-.28,1.94-.53,2.71-.31,.98-.72,1.76-1.23,2.38-.73,.88-1.49,1.41-2.27,1.57-.16,.03-.31,.05-.47,.05-.23,0-.45-.03-.66-.1-.32-.1-.61-.3-.87-.58-.29-.31-.52-.71-.68-1.2-.13,.54-.38,1.11-.7,1.65-.24,.39-.54,.75-.89,1.08-.31,.29-.67,.56-1.19,.86-.86,.51-1.82,.8-2.73,1.05-.41,.11-.84,.21-1.25,.3-.5,.11-1.01,.22-1.5,.37-.51,.16-.94,.35-1.32,.57-.26,.17-.5,.4-.73,.62l-.17,.16-.22,.2-.22,.2-.05,.05s-.08,.09-.13,.12h-.01v-.03c.04-.06,.07-.13,.1-.19,.02-.05,.04-.11,.05-.17,.03-.13,.04-.26,.04-.38,0-.21-.04-.43-.12-.68-.11-.36-.27-.7-.43-1.03-.1-.21-.19-.41-.28-.62-.26-.63-.37-1.25-.34-1.88,0-.13,.02-.26,.04-.38-.26,.17-.56,.32-.92,.45-.51,.19-1.07,.33-1.82,.46-.43,.08-.88,.13-1.31,.18-.19,.02-.38,.05-.57,.07l-.12,.02c-.48,.06-.97,.13-1.43,.27-.73,.24-1.42,.64-1.87,.91-.58,.36-1.04,.73-1.42,1.12-.15,.16-.27,.34-.39,.51l-.02,.03-.04,.06c-.12,.17-.24,.34-.34,.52l-.03,.1h.03l-.04,.04s-.02,.07-.05,.1v-.08l-.02-.03c-.03-.08,0-.19,.01-.28v-.05c.04-.17,.08-.34,.12-.51,0-.12,0-.24,0-.35-.03-.83-.19-1.66-.35-2.45l-.04-.21C.12,27.87,0,27.07,0,26.23c0-1.7,.52-3.4,1.49-4.93,.49-.77,1.12-1.53,1.94-2.34,.67-.66,1.42-1.26,2.21-1.78,.9-.58,1.76-1.06,2.63-1.45h0Z"/><rect class="b" x="26.54" y="17.84" width=".02" height="0" transform="translate(-.62 34.73) rotate(-65.77)"/><rect class="b" x="26.53" y="17.79" width=".07" height="0" transform="translate(-.49 34.83) rotate(-66)"/><polygon class="b" points="24.57 21.11 24.59 21.08 24.62 21.05 24.57 21.11 24.57 21.11"/><rect class="b" x="27.65" y="8.1" width="0" height="0" transform="translate(-.74 13.05) rotate(-26.21)"/><polygon class="b" points="26.93 7.71 26.93 7.71 26.93 7.71 26.93 7.71"/><rect class="b" x="26.93" y="7.7" width="0" height="0" transform="translate(-.56 2.31) rotate(-4.86)"/><polygon class="b" points="27.65 8.06 27.65 8.1 27.65 8.08 27.65 8.06 27.65 8.06"/><rect class="b" x="7.99" y="6.74" width=".02" height="0" transform="translate(-2.26 8.82) rotate(-51.59)"/><polygon class="b" points="8.01 6.72 8 6.74 8.02 6.71 8.01 6.72 8.01 6.72"/><path class="b" d="M59.07,2.1c-.17,.39-.36,.86-.44,1.35-.03,.18-.03,.33-.02,.47,.01,.11,.03,.19,.06,.26h0v.03h0c-.07-.1-.13-.21-.16-.34v.03l-.02-.06c-.1-.31-.11-.66-.11-.89,0-.07,0-.15,0-.22,.03-.17,.06-.33,.09-.5,.17-.77,.41-1.51,.72-2.23h1.03c-.08,.12-.15,.24-.22,.35-.39,.63-.69,1.21-.93,1.74h0Z"/><path class="b" d="M58.43,1.35c-.03,.14-.06,.28-.09,.42-.01-.17-.03-.33-.04-.5-.04-.42-.08-.85-.11-1.28h.62c-.15,.44-.28,.9-.38,1.35h0Z"/><path class="b" d="M9.15,4.84c-1.47,1.52-2.47,3.24-3.56,5.03,.47-1.29,.78-2.6,1.12-4.04v-.03l.02-.07c.2-.83,.4-1.68,.64-2.51,1.48-1.18,2.82-2.25,4.16-3.22h4.99c-2.79,1.18-5.43,2.83-7.36,4.84h0Z"/><path class="b" d="M10.41,8.99c-2.55,1.35-4.85,3.02-6.79,5.05h0l-.02-.02c.36-.6,.7-1.11,1.01-1.52-.35,.44-.66,.77-.99,1.04,.47-.61,.77-1.08,1.07-1.65,1.17-1.39,2.5-2.65,3.96-3.74,4.56-3.36,10.09-4.95,15.67-5.62h-.04c2.5-.29,5.01-.38,7.52-.32,.03,0-4.87-.44-9.97,.24-6.51,.87-12.42,3.44-16.68,8.45,.99-1.45,1.82-2.84,2.85-4.15v-.02C10.42,3.67,14.36,1.32,18.2,0h23.73c-3.41,2.46-7.03,3.59-15.13,4.58,.78-.09-8.65,.44-16.39,4.41h0Z"/><rect class="b" x="25.81" y="32.6" width="0" height=".02" transform="translate(-4.91 4.58) rotate(-9.26)"/><rect class="b" x="25.8" y="32.58" width="0" height=".02" transform="translate(-4.18 3.8) rotate(-7.8)"/><path class="b" d="M24.89,30.61c1.06,.32,1.91,1.19,2.15,2.34,.35,1.68-.73,3.33-2.41,3.68-1.68,.35-3.33-.73-3.68-2.41-.35-1.68,.73-3.33,2.41-3.68,.4-.08,.8-.08,1.19-.01,.05,.03,.11,.07,.16,.1,.18,.14,.35,.31,.49,.49,.16,.21,.29,.43,.39,.67,.11,.26,.18,.53,.22,.8h0c.03,.29,.04,.57,0,.85-.03,.22-.09,.44-.18,.64-.07,.15-.15,.3-.26,.43-.09,.11-.19,.21-.31,.31-.12,.09-.25,.16-.39,.22-.16,.06-.32,.1-.49,.13-.2,.02-.4,.03-.59,0-.1-.02-.2-.04-.3-.08-.12-.05-.22-.12-.33-.19-.12-.1-.22-.21-.32-.33-.12-.16-.21-.33-.29-.5-.07-.18-.12-.36-.16-.55-.02-.15-.02-.29,0-.43,.01-.09,.04-.19,.07-.28,.03-.07,.06-.13,.11-.19,.04-.05,.08-.09,.13-.13,.06-.04,.12-.08,.19-.11,.08-.03,.17-.05,.26-.07h.1v-.02c-.24-.03-.47,0-.67,.14-.18,.12-.3,.31-.37,.52-.18,.51-.05,1.1,.18,1.57,.25,.51,.71,.95,1.29,1.05,.14,.03,.29,.04,.44,.04,.42,0,.86-.11,1.21-.33,.9-.55,1.15-1.68,1-2.65-.13-.81-.58-1.57-1.24-2.05h0Z"/><path class="b" d="M17.76,40.92c-.21-1.02,.44-2.01,1.46-2.23,.25-.05,.5-.05,.73,0,.09,.08,.18,.18,.26,.28,.1,.14,.19,.29,.26,.46,.06,.15,.1,.3,.12,.46,0,.1,0,.21,0,.31-.02,.12-.06,.24-.11,.36-.05,.1-.1,.2-.17,.29-.06,.07-.12,.13-.18,.18-.06,.04-.13,.08-.2,.11-.07,.02-.14,.04-.21,.05-.05,0-.1,0-.15,0-.04-.01-.09-.02-.13-.04-.08-.04-.15-.08-.22-.14-.09-.07-.16-.15-.23-.24-.04-.06-.08-.12-.11-.19-.02-.05-.03-.09-.04-.14,0-.04,0-.08,0-.12l.03-.09,.05-.08s.07-.08,.12-.11h0c-.22,.09-.35,.26-.35,.51,0,.27,.15,.53,.32,.72,.19,.21,.45,.34,.74,.34h0c.34,0,.65-.17,.87-.42,.22-.24,.32-.55,.36-.87,.04-.34-.06-.67-.21-.97-.1-.19-.23-.37-.39-.53,.54,.24,.96,.72,1.08,1.34,.21,1.02-.44,2.01-1.46,2.23-1.02,.21-2.01-.44-2.23-1.46h0Z"/><path class="b" d="M16.23,46.16c-.12-.57,.25-1.12,.81-1.24,.39-.08,.77,.07,1.01,.35,.01,.05,.03,.11,.04,.17,0,.09,0,.18,0,.28-.01,.07-.03,.13-.06,.2-.03,.07-.07,.13-.11,.19-.04,.05-.08,.09-.13,.13-.07,.05-.14,.09-.22,.12-.06,.02-.12,.04-.19,.05-.05,0-.09,0-.14,0-.05,0-.09-.02-.14-.04l-.09-.06-.08-.08s-.05-.07-.07-.11c-.01-.04-.03-.08-.03-.13,0-.04,0-.08,0-.12l.02-.07s.04-.07,.06-.11c.03-.04,.06-.07,.1-.09h0l.04-.03h0c-.18,.06-.3,.18-.33,.37-.04,.19,.08,.42,.24,.53,.11,.08,.25,.11,.38,.11,.26,0,.53-.14,.69-.35,.16-.21,.22-.45,.19-.7,.03,.06,.05,.13,.06,.2,.12,.57-.25,1.12-.81,1.24-.57,.12-1.12-.25-1.24-.81h0Z"/><rect class="b" x="44.68" y="66.32" width="0" height=".01" transform="translate(-8.08 6.23) rotate(-7.31)"/><path class="b" d="M42.79,64.74c.31-.07,.62-.06,.92-.01,.04,.03,.08,.05,.12,.08,.14,.11,.27,.24,.38,.38,.12,.16,.22,.33,.3,.52,.08,.2,.14,.41,.17,.62h0c.03,.22,.03,.44,0,.66-.03,.17-.07,.34-.14,.5-.05,.12-.12,.23-.2,.34-.07,.09-.15,.17-.24,.24-.09,.07-.19,.13-.3,.17-.12,.05-.25,.08-.38,.1-.15,.02-.31,.02-.46,0-.08-.01-.16-.03-.23-.06-.09-.04-.17-.09-.25-.15-.09-.08-.17-.16-.25-.25-.09-.12-.16-.25-.23-.39-.06-.14-.1-.28-.12-.42-.01-.11-.02-.22,0-.34,.01-.07,.03-.14,.05-.21,.02-.05,.05-.1,.08-.14,.03-.04,.06-.07,.1-.1,.04-.03,.09-.06,.14-.08,.07-.03,.13-.04,.2-.05h.08c-.18-.03-.36,0-.52,.09-.14,.09-.23,.24-.28,.4-.14,.39-.04,.85,.14,1.21,.19,.4,.55,.73,1,.82,.11,.02,.23,.03,.34,.03,.33,0,.66-.09,.94-.25,.69-.42,.89-1.3,.77-2.05-.1-.63-.45-1.22-.96-1.59,.82,.25,1.48,.92,1.66,1.81,.27,1.3-.57,2.58-1.87,2.85-1.3,.27-2.58-.57-2.85-1.87-.27-1.3,.57-2.58,1.87-2.85h0Z"/><path class="b" d="M79.9,99.75c-.53-.72-.38-1.74,.34-2.27,.17-.13,.36-.22,.56-.27l.1,.02c.12,.03,.23,.07,.34,.13,.12,.06,.23,.14,.33,.23,.11,.1,.2,.21,.28,.33h0c.08,.13,.14,.26,.18,.4,.03,.11,.05,.23,.06,.34,0,.09,0,.18-.03,.26-.02,.07-.04,.14-.08,.21-.04,.07-.08,.13-.14,.19-.06,.06-.13,.12-.2,.17-.09,.05-.18,.1-.28,.13-.05,.02-.11,.02-.16,.03-.07,0-.13,0-.2-.02-.08-.02-.15-.05-.22-.08-.09-.05-.17-.11-.25-.18-.07-.07-.14-.14-.19-.23-.04-.06-.07-.13-.1-.2-.01-.05-.02-.1-.03-.15,0-.04,0-.07,.01-.11l.03-.09,.06-.09s.07-.06,.11-.09h0l.05-.03h0c-.12,.04-.22,.1-.29,.21-.06,.1-.07,.21-.06,.33,.03,.28,.22,.53,.43,.7,.23,.19,.55,.29,.84,.22,.07-.02,.15-.04,.22-.08,.2-.09,.38-.24,.5-.42,.31-.45,.18-1.05-.11-1.47-.24-.36-.62-.62-1.04-.7,.57-.08,1.16,.15,1.53,.64,.53,.72,.38,1.74-.34,2.27-.72,.53-1.74,.38-2.27-.34h0Z"/><path class="b" d="M78.74,103.06c-.35-.48-.25-1.15,.23-1.51,.12-.08,.24-.14,.37-.18h.06c.08,.03,.15,.06,.23,.09,.08,.04,.15,.09,.22,.16,.07,.07,.13,.14,.19,.22h0c.05,.09,.09,.17,.12,.27,.02,.07,.03,.15,.04,.23,0,.06,0,.12-.02,.17-.01,.05-.03,.1-.05,.14-.03,.05-.06,.09-.09,.13-.04,.04-.09,.08-.14,.11-.06,.04-.12,.07-.19,.09-.04,.01-.07,.02-.11,.02-.04,0-.09,0-.13-.01-.05-.01-.1-.03-.15-.06-.06-.03-.11-.07-.17-.12-.05-.05-.09-.09-.13-.15-.03-.04-.05-.09-.07-.13l-.02-.1v-.07l.03-.06,.04-.06,.07-.06h0l.03-.02h0c-.08,.02-.15,.07-.19,.14-.04,.06-.05,.14-.04,.22,.02,.19,.14,.35,.28,.47,.15,.12,.36,.2,.56,.15,.05-.01,.1-.03,.15-.05,.13-.06,.25-.16,.33-.28,.2-.3,.12-.69-.07-.98-.16-.24-.41-.41-.69-.47,.38-.05,.77,.1,1.02,.43,.35,.48,.25,1.15-.23,1.51-.48,.35-1.15,.25-1.51-.23h0Z"/><path class="b" d="M77.87,104.55c.08-.06,.16-.1,.25-.12h.04c.05,.02,.1,.04,.15,.06,.05,.03,.1,.06,.15,.1,.05,.04,.09,.09,.12,.15h0c.03,.06,.06,.12,.08,.18,.01,.05,.02,.1,.02,.15,0,.04,0,.08-.01,.12l-.03,.09-.06,.08-.09,.07s-.08,.04-.12,.06h-.16l-.1-.03s-.08-.05-.11-.08c-.03-.03-.06-.06-.09-.1l-.04-.09v-.15l.04-.04,.05-.04h.02c-.05,0-.1,.03-.13,.08-.03,.04-.03,.09-.03,.14,.01,.12,.1,.23,.19,.31,.1,.08,.24,.13,.37,.1l.1-.03c.09-.04,.17-.11,.22-.18,.14-.2,.08-.46-.05-.65-.11-.16-.27-.27-.46-.31,.25-.04,.51,.07,.68,.28,.23,.32,.17,.77-.15,1-.32,.23-.77,.17-1-.15-.23-.32-.17-.77,.15-1h0Z"/><path class="b" d="M57.68,85.98c.18,.12,.32,.27,.44,.44l.02,.1c.01,.12,.01,.24,0,.36-.02,.13-.06,.26-.11,.39-.06,.13-.13,.26-.22,.37h0c-.09,.12-.2,.22-.31,.31-.09,.07-.2,.12-.3,.17-.08,.03-.17,.05-.26,.06-.08,0-.15,0-.23,0-.08-.01-.15-.03-.23-.06-.08-.04-.15-.08-.23-.14-.08-.07-.15-.14-.22-.22-.03-.04-.06-.09-.08-.14-.02-.06-.04-.13-.05-.19,0-.08,0-.16,0-.24,.02-.1,.05-.2,.08-.29,.04-.09,.09-.18,.15-.26,.05-.06,.1-.11,.16-.16,.04-.03,.08-.05,.13-.07,.03-.01,.07-.02,.11-.03h.1s.07,.02,.11,.03c.04,.02,.08,.04,.12,.07h0l.04,.03h0c-.08-.1-.17-.18-.3-.2-.11-.02-.23,0-.33,.05-.25,.12-.43,.38-.52,.64-.1,.28-.1,.61,.07,.87,.04,.06,.09,.12,.15,.18,.15,.16,.35,.28,.56,.34,.53,.14,1.05-.18,1.36-.59,.26-.34,.38-.79,.32-1.21,.26,.51,.25,1.15-.1,1.66-.5,.74-1.51,.93-2.26,.43-.74-.5-.93-1.51-.43-2.26,.5-.74,1.51-.93,2.26-.43h0Z"/><path class="b" d="M53.42,86.13c.12,.08,.22,.18,.29,.29v.06c.02,.08,.02,.16,0,.24-.01,.09-.04,.18-.07,.26-.04,.09-.09,.17-.15,.25h0c-.06,.08-.13,.15-.21,.21-.06,.04-.13,.08-.2,.11-.05,.02-.11,.03-.17,.04-.05,0-.1,0-.15,0-.05,0-.1-.02-.15-.04-.05-.02-.1-.06-.15-.09-.05-.04-.1-.09-.14-.15l-.05-.09s-.02-.08-.03-.13c0-.05,0-.11,0-.16,.01-.07,.03-.13,.06-.19,.03-.06,.06-.12,.1-.17,.03-.04,.07-.08,.11-.11l.09-.05,.07-.02h.06l.07,.02,.08,.05h0l.03,.02h0c-.05-.07-.12-.12-.2-.14-.07-.02-.15,0-.22,.03-.17,.08-.29,.25-.35,.42-.07,.19-.06,.41,.05,.58,.03,.04,.06,.08,.1,.12,.1,.11,.23,.19,.37,.22,.35,.09,.7-.12,.9-.39,.17-.23,.25-.52,.21-.8,.17,.34,.16,.76-.07,1.1-.33,.49-1.01,.62-1.5,.29-.49-.33-.62-1.01-.29-1.5,.33-.49,1.01-.62,1.5-.29h0Z"/><path class="b" d="M50.22,86.09c.08,.05,.14,.12,.19,.19v.04c.01,.05,.01,.11,0,.16,0,.06-.03,.12-.05,.17-.03,.06-.06,.11-.1,.17h0c-.04,.05-.09,.1-.14,.14-.04,.03-.09,.05-.13,.07-.04,.01-.07,.02-.11,.03h-.1l-.1-.03s-.07-.04-.1-.06c-.03-.03-.07-.06-.1-.1l-.04-.06-.02-.08s0-.07,0-.11c0-.04,.02-.09,.04-.13,.02-.04,.04-.08,.07-.11l.07-.07,.06-.03h.14l.05,.03h0l.02,.02h0s-.08-.08-.13-.09c-.05-.01-.1,0-.14,.02-.11,.05-.19,.17-.23,.28-.04,.12-.04,.27,.03,.38l.06,.08c.07,.07,.16,.12,.25,.15,.23,.06,.46-.08,.6-.26,.11-.15,.17-.35,.14-.53,.12,.23,.11,.51-.04,.73-.22,.33-.67,.41-.99,.19-.33-.22-.41-.67-.19-1,.22-.33,.67-.41,.99-.19h0Z"/><path class="b" d="M9.03,30.41c.19,.03,.36,.09,.52,.18l.05,.07c.06,.09,.1,.19,.13,.29,.04,.12,.06,.23,.06,.35,0,.13,0,.26-.03,.38h0c-.03,.13-.07,.25-.13,.37-.05,.09-.11,.17-.18,.25-.05,.06-.12,.11-.18,.15-.06,.03-.12,.06-.18,.08-.07,.02-.14,.03-.2,.03-.08,0-.16,0-.23-.02-.09-.02-.18-.05-.26-.09-.04-.02-.08-.05-.12-.08-.04-.04-.08-.09-.11-.13-.04-.06-.06-.13-.09-.19-.03-.09-.04-.17-.05-.27,0-.09,0-.18,.02-.26,.02-.07,.04-.13,.07-.19,.02-.04,.05-.07,.07-.11l.08-.06,.08-.04,.1-.02s.08,0,.12,.01h.05c-.1-.04-.21-.06-.31-.04-.1,.02-.18,.09-.24,.17-.16,.19-.2,.47-.17,.71,.03,.26,.16,.52,.39,.66,.06,.03,.12,.06,.19,.09,.18,.07,.39,.09,.58,.05,.48-.09,.77-.54,.86-.99,.07-.37,0-.78-.21-1.09,.41,.31,.64,.82,.56,1.36-.12,.78-.85,1.33-1.63,1.21-.78-.12-1.33-.85-1.21-1.63,.12-.78,.85-1.33,1.63-1.21h0Z"/><path class="b" d="M5.68,32.17c.13,.02,.24,.06,.34,.12l.03,.05c.04,.06,.07,.13,.09,.19,.02,.08,.04,.16,.04,.23,0,.09,0,.17-.02,.25h0c-.02,.09-.05,.17-.09,.24-.03,.06-.07,.12-.12,.17-.04,.04-.08,.07-.12,.1-.04,.02-.08,.04-.12,.06-.04,.01-.09,.02-.14,.02-.05,0-.1,0-.15-.01-.06-.01-.12-.03-.17-.06l-.08-.06-.07-.09s-.04-.08-.06-.13c-.02-.06-.03-.12-.03-.18,0-.06,0-.12,.01-.17,.01-.04,.02-.09,.04-.13l.05-.07,.05-.04,.05-.02h.18c-.07-.03-.14-.05-.21-.03-.07,.02-.12,.06-.16,.11-.1,.13-.13,.31-.11,.47,.02,.17,.11,.35,.26,.44,.04,.02,.08,.04,.12,.06,.12,.05,.26,.06,.38,.03,.32-.06,.51-.36,.57-.66,.05-.25,0-.51-.14-.72,.27,.2,.42,.55,.37,.9-.08,.52-.56,.88-1.08,.8-.52-.08-.88-.56-.8-1.08,.08-.52,.56-.88,1.08-.8h0Z"/><path class="b" d="M3.12,33.36c.08,.01,.16,.04,.23,.08l.02,.03s.05,.08,.06,.13c.02,.05,.02,.1,.03,.16,0,.06,0,.11-.01,.17h0c-.01,.06-.03,.11-.06,.16-.02,.04-.05,.08-.08,.11l-.08,.07-.08,.04-.09,.02h-.1s-.08-.03-.11-.05l-.05-.04-.05-.06-.04-.08s-.02-.08-.02-.12c0-.04,0-.08,0-.12l.03-.08,.03-.05,.03-.03,.03-.02h.12s-.09-.03-.14-.02c-.04,.01-.08,.04-.11,.07-.07,.08-.09,.21-.08,.31,.01,.12,.07,.23,.17,.29l.08,.04c.08,.03,.17,.04,.25,.02,.21-.04,.34-.24,.38-.44,.03-.17,0-.34-.09-.48,.18,.13,.28,.36,.25,.6-.05,.35-.37,.59-.72,.53-.35-.05-.59-.37-.53-.72,.05-.35,.37-.59,.72-.53h0Z"/><path class="b" d="M20.59,9.87c-.2,.77-.98,1.23-1.75,1.03-.77-.2-1.23-.98-1.03-1.75,.2-.77,.98-1.23,1.75-1.03,.18,.05,.35,.13,.5,.24l.04,.07c.05,.1,.08,.2,.1,.3,.02,.12,.03,.24,.02,.36,0,.13-.03,.25-.07,.38h0c-.04,.13-.1,.24-.17,.35-.06,.08-.13,.16-.2,.23-.06,.05-.13,.09-.19,.13-.06,.03-.12,.05-.19,.06-.07,.01-.14,.02-.21,.01-.08,0-.15-.02-.23-.05-.09-.03-.17-.07-.25-.12-.04-.03-.08-.06-.11-.09-.04-.05-.07-.09-.1-.15-.03-.06-.05-.13-.07-.2-.02-.09-.02-.18-.02-.27,0-.09,.02-.17,.05-.26,.02-.06,.05-.12,.08-.18,.03-.04,.05-.07,.09-.1l.08-.05,.08-.03h.1s.08,0,.12,.02h0l.04,.02h0c-.09-.06-.2-.1-.31-.08-.1,.01-.19,.07-.26,.14-.18,.17-.24,.45-.24,.69,0,.26,.1,.54,.32,.7,.05,.04,.11,.08,.17,.11,.18,.09,.38,.13,.57,.11,.48-.04,.82-.46,.96-.9,.11-.36,.08-.77-.09-1.11,.37,.35,.55,.88,.41,1.41h0Z"/><path class="b" d="M16.73,10.68c-.13,.51-.65,.82-1.16,.68-.51-.13-.82-.65-.68-1.16,.13-.51,.65-.82,1.16-.68,.12,.03,.23,.09,.33,.16l.03,.05c.03,.06,.05,.13,.07,.2,.02,.08,.02,.16,.02,.24,0,.09-.02,.17-.05,.25h0c-.03,.08-.07,.16-.11,.23-.04,.06-.08,.11-.14,.15-.04,.03-.08,.06-.13,.09-.04,.02-.08,.03-.13,.04-.05,0-.09,.01-.14,0-.05,0-.1-.02-.15-.03-.06-.02-.11-.05-.16-.08l-.07-.06-.06-.1s-.03-.09-.04-.13c-.01-.06-.01-.12-.01-.18,0-.06,.01-.12,.03-.17,.01-.04,.03-.08,.06-.12l.06-.07,.05-.04,.05-.02h.15l.03,.02h0c-.06-.04-.13-.06-.2-.06-.07,0-.12,.05-.17,.09-.12,.12-.16,.3-.16,.46,0,.17,.07,.36,.21,.47,.04,.03,.08,.05,.12,.07,.12,.06,.25,.09,.38,.08,.32-.03,.55-.3,.63-.59,.08-.24,.06-.51-.06-.73,.25,.23,.36,.59,.27,.94h0Z"/><path class="b" d="M13.82,11.21c-.09,.34-.43,.54-.77,.45-.34-.09-.54-.43-.45-.77,.09-.34,.43-.54,.77-.45,.08,.02,.15,.06,.22,.1l.02,.03s.04,.09,.05,.13c.01,.05,.01,.1,.01,.16,0,.06-.01,.11-.03,.17h0c-.02,.06-.04,.11-.08,.16-.03,.04-.06,.07-.09,.1l-.09,.06-.08,.03h-.19s-.08-.05-.11-.07l-.05-.04-.04-.06-.03-.09s0-.08,0-.12c0-.04,0-.08,.02-.11l.04-.08,.04-.04,.04-.02h.04l.04-.02h.05l.02,.02h0s-.09-.04-.14-.04c-.04,0-.08,.03-.11,.06-.08,.08-.11,.2-.11,.3,0,.12,.04,.24,.14,.31l.08,.05c.08,.04,.17,.06,.25,.05,.21-.02,.36-.2,.42-.4,.05-.16,.04-.34-.04-.49,.16,.15,.24,.39,.18,.62h0Z"/><path class="b" d="M33.08,6.38c-.13,.51-.65,.82-1.16,.68-.51-.13-.82-.65-.68-1.16,.13-.51,.65-.82,1.16-.68,.12,.03,.23,.09,.33,.16l.03,.05c.03,.06,.05,.13,.07,.2,.02,.08,.02,.16,.02,.24,0,.09-.02,.17-.05,.25h0c-.03,.08-.07,.16-.11,.23-.04,.06-.08,.11-.14,.15-.04,.03-.08,.06-.13,.08-.04,.02-.08,.03-.13,.04-.05,0-.09,.01-.14,0-.05,0-.1-.02-.15-.03-.06-.02-.11-.05-.16-.08l-.07-.06-.06-.1s-.03-.09-.04-.13c-.01-.06-.01-.12-.01-.18,0-.06,.01-.12,.03-.17,.01-.04,.03-.08,.06-.12l.06-.07,.05-.04,.05-.02h.15l.03,.02h0c-.06-.04-.13-.06-.2-.06-.07,0-.12,.05-.17,.09-.12,.12-.16,.3-.16,.46,0,.18,.07,.36,.21,.47,.04,.03,.08,.05,.12,.07,.12,.06,.25,.09,.38,.08,.32-.03,.55-.3,.63-.59,.08-.24,.06-.51-.06-.73,.25,.23,.36,.59,.27,.94h0Z"/><path class="b" d="M30.17,6.91c-.09,.34-.43,.54-.77,.45-.34-.09-.54-.43-.45-.77,.09-.34,.43-.54,.77-.45,.08,.02,.15,.06,.22,.1l.02,.03s.04,.09,.05,.13c.01,.05,.01,.11,.01,.16,0,.06-.01,.11-.03,.17h0c-.02,.06-.04,.11-.08,.16-.03,.04-.06,.07-.09,.1l-.09,.06-.08,.03h-.09l-.1-.02s-.07-.03-.11-.05l-.05-.04-.04-.06-.03-.09s0-.08,0-.12c0-.04,0-.08,.02-.11l.04-.08,.04-.04,.04-.02h.04l.04-.02h.05l.02,.02h0s-.09-.04-.14-.04c-.04,0-.08,.03-.11,.06-.08,.08-.11,.2-.11,.3,0,.12,.05,.24,.14,.31l.08,.05c.08,.04,.17,.06,.25,.05,.21-.02,.36-.2,.42-.4,.05-.16,.04-.34-.04-.49,.16,.15,.24,.39,.18,.62h0Z"/><path class="b" d="M67.83,57.24c.34-.04,.68,.09,.9,.39,.31,.43,.21,1.02-.22,1.33-.43,.31-1.02,.21-1.33-.22-.31-.43-.21-1.02,.22-1.33,.1-.07,.22-.12,.33-.15h.06c.07,.03,.14,.05,.2,.09,.07,.04,.13,.09,.19,.14,.06,.06,.12,.13,.16,.2h0c.04,.08,.08,.16,.11,.24,.02,.07,.03,.13,.03,.2,0,.05,0,.1-.02,.15-.01,.04-.03,.08-.05,.12-.02,.04-.05,.08-.08,.11-.04,.04-.08,.07-.12,.1-.05,.03-.11,.06-.17,.08l-.09,.02s-.08,0-.12-.01c-.05-.01-.09-.03-.13-.05-.05-.03-.1-.06-.15-.1-.04-.04-.08-.09-.11-.13-.02-.04-.04-.08-.06-.12v-.2l.05-.05,.06-.05h0l.03-.02h0c-.07,.02-.13,.06-.17,.12-.04,.06-.04,.12-.04,.19,.01,.16,.13,.31,.25,.42,.13,.11,.32,.18,.49,.13,.04-.01,.09-.02,.13-.04,.12-.05,.23-.14,.3-.24,.18-.27,.11-.61-.05-.87-.14-.21-.36-.37-.61-.42h0Z"/><path class="b" d="M67.14,61.09c-.28,.2-.68,.14-.89-.14-.2-.28-.14-.68,.14-.89,.07-.05,.14-.08,.22-.1h.04s.09,.03,.13,.06c.05,.03,.09,.06,.13,.09,.04,.04,.08,.08,.11,.13h0c.03,.05,.05,.1,.07,.16,.01,.04,.02,.09,.02,.13v.1l-.04,.08-.05,.07-.08,.06s-.07,.04-.11,.05h-.14l-.09-.03-.1-.07-.07-.09-.04-.08v-.14l.03-.04,.04-.03h.02s-.09,.03-.11,.07c-.02,.04-.03,.08-.03,.13,0,.11,.08,.21,.16,.28,.09,.07,.21,.12,.33,.09l.09-.03c.08-.04,.15-.09,.2-.16,.12-.18,.08-.41-.04-.58-.09-.14-.24-.24-.4-.28,.22-.03,.45,.06,.59,.26,.2,.28,.14,.68-.14,.89h0Z"/><path class="b" d="M82.15,53.33c-.25,.03-.49,.16-.64,.36,.11-.32,.39-.57,.74-.63,.52-.09,1.01,.26,1.1,.78,.09,.52-.26,1.01-.78,1.1-.52,.09-1.01-.26-1.1-.78-.02-.12-.02-.25,0-.36l.03-.05c.05-.05,.1-.1,.16-.15,.06-.05,.14-.08,.21-.11,.08-.03,.16-.05,.25-.06h0c.09,0,.17,0,.26,0,.07,.01,.13,.03,.19,.06,.05,.02,.09,.05,.13,.08,.03,.03,.06,.06,.09,.1,.03,.04,.05,.08,.06,.12,.02,.05,.03,.1,.03,.15,0,.06,0,.12,0,.18l-.03,.09-.06,.1s-.07,.07-.1,.09c-.05,.03-.1,.06-.16,.08-.06,.02-.11,.03-.17,.04-.04,0-.09,0-.13,0l-.08-.03-.06-.03-.04-.04-.03-.06-.02-.08h0v-.03h0c-.01,.07,0,.14,.04,.21,.03,.06,.09,.09,.15,.12,.15,.06,.34,.03,.48-.04,.16-.07,.3-.21,.34-.38,.01-.04,.02-.09,.02-.14,0-.13-.02-.26-.09-.38-.16-.28-.5-.37-.8-.33h0Z"/><path class="b" d="M83.86,55.67c-.17,.02-.32,.11-.43,.24,.07-.21,.26-.38,.49-.42,.34-.06,.67,.17,.73,.52,.06,.34-.17,.67-.52,.73-.34,.06-.67-.17-.73-.52-.01-.08-.01-.16,0-.24l.02-.03s.06-.07,.1-.1c.04-.03,.09-.06,.14-.07,.05-.02,.11-.03,.16-.04h0c.06,0,.11,0,.17,0,.04,0,.09,.02,.13,.04l.09,.06,.06,.06,.04,.08,.02,.1s0,.08,0,.12l-.02,.06-.04,.06-.07,.06s-.07,.04-.1,.06c-.04,.01-.07,.02-.11,.03h-.09l-.06-.02-.04-.02-.03-.03-.02-.04v-.05h-.01v-.02h0s0,.1,.02,.14c.02,.04,.06,.06,.1,.08,.1,.04,.22,.02,.32-.03,.11-.05,.2-.14,.22-.25v-.09c.01-.09,0-.18-.05-.25-.1-.19-.33-.25-.53-.22h0Z"/><path class="b" d="M90.14,40.11c.33,.06,.62,.3,.73,.65,.16,.5-.12,1.04-.62,1.2-.5,.16-1.04-.12-1.2-.62-.16-.5,.12-1.04,.62-1.2,.12-.04,.24-.05,.36-.04l.05,.03c.06,.04,.12,.08,.17,.13,.06,.06,.1,.12,.14,.19,.04,.08,.07,.15,.09,.24h0c.02,.09,.03,.17,.03,.26,0,.07-.01,.14-.03,.2-.02,.05-.04,.1-.06,.14-.02,.04-.05,.07-.08,.1-.03,.03-.07,.06-.11,.08-.05,.02-.09,.04-.14,.05-.06,.01-.12,.02-.18,.02h-.1s-.07-.04-.11-.06c-.04-.03-.08-.06-.11-.09-.04-.04-.08-.09-.11-.14-.03-.05-.05-.11-.06-.16-.01-.04-.02-.09-.02-.13v-.09l.04-.06,.03-.04,.05-.04,.08-.03h.03c-.07,0-.14,0-.2,.06-.05,.04-.08,.11-.1,.17-.04,.16,.02,.34,.11,.47,.09,.15,.25,.27,.43,.28,.05,0,.09,0,.14,0,.13-.01,.26-.06,.36-.14,.26-.2,.3-.55,.22-.84-.07-.24-.23-.46-.45-.59h0Z"/><path class="b" d="M88.21,42.33c.22,.04,.41,.2,.49,.43,.11,.33-.08,.69-.41,.8-.33,.11-.69-.08-.8-.41-.11-.33,.08-.69,.41-.8,.08-.03,.16-.03,.24-.03l.03,.02s.08,.05,.11,.09c.04,.04,.07,.08,.09,.13,.03,.05,.05,.1,.06,.16h0c.01,.06,.02,.12,.02,.17,0,.05,0,.09-.02,.13l-.04,.09-.06,.07-.07,.05-.1,.04s-.08,.01-.12,.01h-.06l-.07-.04-.07-.06-.07-.1s-.03-.07-.04-.11v-.15l.02-.04,.02-.03,.03-.03,.05-.02h.02s-.1,0-.13,.04c-.03,.03-.05,.07-.06,.11-.02,.11,.01,.22,.07,.31,.06,.1,.17,.18,.28,.19h.09c.09,0,.17-.04,.24-.09,.17-.13,.2-.36,.15-.56-.04-.16-.15-.31-.3-.39h0Z"/><path class="b" d="M65.82,36.36c-.79,.08-1.49-.5-1.57-1.29-.08-.79,.5-1.49,1.29-1.57,.19-.02,.37,0,.55,.05l.07,.05c.08,.07,.14,.16,.2,.25,.06,.1,.11,.21,.15,.33,.04,.12,.06,.25,.06,.38h0c0,.14-.01,.26-.04,.39-.03,.1-.06,.2-.11,.29-.04,.07-.09,.13-.14,.19-.05,.05-.1,.09-.16,.13-.06,.04-.12,.06-.19,.08-.08,.02-.15,.03-.23,.04-.09,0-.18,0-.27-.03-.05-.01-.09-.03-.14-.05-.05-.03-.1-.06-.14-.1-.05-.05-.09-.11-.13-.17-.05-.08-.08-.16-.11-.25-.02-.08-.04-.17-.05-.26,0-.07,0-.13,.02-.2,.01-.04,.03-.08,.05-.12l.06-.08,.07-.05,.09-.04s.08-.02,.12-.02h.05c-.11-.03-.22-.02-.32,.03-.09,.05-.15,.13-.19,.22-.11,.22-.07,.5,0,.73,.09,.25,.28,.47,.54,.55,.06,.02,.13,.03,.2,.04,.2,.02,.4,0,.57-.09,.44-.21,.61-.72,.59-1.17-.02-.38-.19-.75-.47-1,.47,.2,.82,.64,.87,1.18,.08,.79-.5,1.49-1.29,1.57h0Z"/><path class="b" d="M62.59,37.57s.09,.02,.13,.03c.13,.01,.26,0,.38-.06,.29-.14,.41-.47,.39-.78-.01-.25-.13-.5-.31-.67,.31,.13,.54,.42,.58,.78,.05,.52-.33,.99-.85,1.05-.52,.05-.99-.33-1.05-.85-.05-.52,.33-.99,.85-1.05,.13-.01,.25,0,.36,.03l.04,.04c.05,.05,.1,.1,.13,.17,.04,.07,.07,.14,.1,.22,.02,.08,.04,.17,.04,.25h0c0,.09,0,.18-.03,.26-.02,.07-.04,.13-.07,.19-.03,.04-.06,.09-.09,.12-.03,.03-.07,.06-.1,.08-.04,.02-.08,.04-.13,.06-.05,.01-.1,.02-.15,.02-.06,0-.12,0-.18-.02l-.09-.03-.09-.07s-.06-.07-.09-.11c-.03-.05-.05-.11-.07-.16-.02-.06-.03-.11-.03-.17,0-.05,0-.09,.01-.13l.03-.08,.04-.05,.04-.04,.06-.03h.11c-.07-.03-.14-.03-.21,0-.06,.03-.1,.09-.13,.15-.07,.15-.05,.33,0,.48,.06,.16,.19,.31,.36,.36h0Z"/><path class="b" d="M60.45,38.84l.09,.02c.09,0,.18,0,.25-.04,.19-.09,.27-.31,.26-.52,0-.17-.08-.33-.21-.44,.21,.09,.36,.28,.39,.52,.03,.35-.22,.66-.57,.69-.35,.03-.66-.22-.69-.57-.04-.35,.22-.66,.57-.69,.08,0,.16,0,.24,.02l.03,.02s.06,.07,.09,.11c.03,.05,.05,.09,.06,.14,.02,.05,.02,.11,.03,.17h0c0,.06,0,.12-.02,.17-.01,.04-.03,.09-.05,.13l-.06,.08-.07,.06-.08,.04-.1,.02s-.08,0-.12-.01l-.06-.02-.06-.05-.06-.07s-.04-.07-.05-.11c-.01-.04-.02-.08-.02-.11v-.09l.03-.05,.03-.04,.03-.02,.04-.02h.08s-.1-.02-.14,0c-.04,.02-.07,.06-.09,.1-.05,.1-.03,.22,0,.32,.04,.11,.12,.21,.24,.24h0Z"/><path class="b" d="M7.78,.65c-.31,.04-.59-.17-.64-.48,0-.06,0-.11,0-.17h.19c-.02,.08,0,.17,.03,.24,.04,.1,.12,.18,.22,.21h.08c.08,.02,.16,0,.22-.03,.15-.08,.21-.25,.21-.42h.16c.04,.32-.17,.6-.48,.65h0Z"/><path class="b" d="M7.99,.2l-.05,.08-.06,.05-.07,.04-.09,.02s-.07,0-.11,0l-.05-.02-.06-.04-.05-.06-.05-.09-.02-.1v-.06h.66V.09s-.03,.08-.04,.11h0Z"/><path class="b" d="M73.87,12.13c-.38-.01-.77,.12-1.04,.38,.24-.45,.71-.76,1.26-.76,.79,0,1.44,.63,1.45,1.42,0,.79-.63,1.44-1.42,1.45-.79,0-1.44-.63-1.45-1.42,0-.19,.03-.37,.1-.54l.06-.06c.08-.07,.17-.13,.27-.18,.11-.05,.22-.09,.34-.12,.13-.02,.26-.03,.38-.03h0c.13,0,.26,.03,.38,.07,.1,.03,.19,.08,.27,.14,.06,.05,.12,.1,.17,.15,.04,.05,.08,.11,.11,.17,.03,.06,.05,.13,.07,.2,.01,.08,.02,.15,.01,.23,0,.09-.02,.18-.05,.27-.02,.05-.04,.09-.06,.13-.03,.05-.07,.09-.12,.13-.05,.05-.11,.08-.18,.12-.08,.04-.17,.07-.25,.09-.09,.02-.17,.02-.26,.02-.07,0-.13-.02-.2-.03-.04-.01-.08-.03-.12-.06l-.08-.06-.05-.07-.03-.09s0-.08,0-.12h0v-.05h0c-.03,.1-.04,.21,0,.32,.04,.09,.12,.16,.2,.21,.21,.13,.49,.12,.73,.06,.25-.07,.49-.24,.59-.49,.03-.06,.04-.13,.06-.2,.04-.19,.03-.4-.04-.58-.17-.46-.66-.67-1.11-.69h0Z"/><path class="b" d="M76.83,16.2c0,.53-.42,.96-.94,.97-.53,0-.96-.42-.96-.94,0-.13,.02-.25,.07-.36l.04-.04c.05-.05,.11-.09,.18-.12,.07-.04,.15-.06,.23-.08,.08-.02,.17-.02,.25-.02h0c.09,0,.17,.02,.25,.05,.06,.02,.13,.05,.18,.09,.04,.03,.08,.06,.12,.1,.03,.03,.05,.07,.07,.11,.02,.04,.03,.09,.04,.13,0,.05,.01,.1,0,.16,0,.06-.02,.12-.03,.18l-.04,.09-.08,.09s-.08,.06-.12,.08c-.05,.03-.11,.04-.17,.06-.06,.01-.12,.02-.17,.01-.04,0-.09-.01-.13-.02l-.08-.04-.05-.04-.03-.05-.02-.06v-.08h0v-.03h0c-.02,.07-.03,.14,0,.21,.03,.06,.08,.11,.13,.14,.14,.08,.33,.08,.48,.04,.17-.05,.33-.16,.39-.32,.02-.04,.03-.09,.04-.13,.03-.13,.02-.26-.03-.38-.11-.3-.44-.45-.74-.46-.25,0-.51,.08-.69,.25,.16-.3,.47-.5,.83-.51,.53,0,.96,.42,.96,.94h0Z"/><path class="b" d="M77.78,18.55c0,.35-.28,.64-.63,.64-.35,0-.64-.28-.64-.63,0-.08,.01-.16,.04-.24l.03-.03s.08-.06,.12-.08c.05-.02,.1-.04,.15-.05,.06-.01,.11-.02,.17-.01h0c.06,0,.11,.01,.17,.03,.04,.02,.08,.03,.12,.06l.08,.07,.05,.07,.03,.09v.1s0,.08-.02,.12l-.03,.06-.05,.06-.08,.05s-.07,.03-.11,.04c-.04,0-.08,.01-.12,0l-.09-.02-.05-.03-.03-.03-.02-.03v-.04l-.02-.05v-.02h0s-.02,.09,0,.14c.02,.04,.05,.07,.09,.09,.09,.06,.22,.05,.32,.02,.11-.03,.22-.11,.26-.22l.03-.09c.02-.09,.01-.18-.02-.26-.07-.2-.29-.3-.49-.3-.17,0-.34,.05-.46,.17,.11-.2,.31-.33,.55-.34,.35,0,.64,.28,.64,.63h0Z"/><path class="b" d="M83.4,16.91c.48-.17,1.04-.08,1.44,.28,.59,.53,.64,1.44,.12,2.03-.53,.59-1.44,.64-2.03,.12-.59-.53-.64-1.44-.12-2.03,.13-.14,.28-.25,.44-.33h.09c.11,0,.21,.01,.32,.04,.12,.03,.23,.08,.33,.14,.11,.07,.21,.15,.3,.24h0c.09,.1,.17,.2,.23,.31,.05,.09,.09,.19,.11,.29,.02,.08,.03,.15,.02,.23,0,.07-.01,.13-.03,.2-.02,.07-.05,.13-.08,.19-.04,.07-.09,.13-.15,.18-.07,.06-.14,.12-.22,.17-.04,.02-.09,.04-.13,.05-.06,.01-.11,.02-.17,.02-.07,0-.14-.01-.21-.03-.09-.03-.17-.06-.25-.11-.08-.05-.15-.1-.21-.16-.05-.05-.09-.1-.12-.16-.02-.04-.04-.08-.05-.12v-.18l.04-.09,.08-.1h0l.04-.03h0c-.09,.05-.17,.13-.21,.23-.03,.1-.02,.2,0,.29,.07,.24,.29,.42,.5,.53,.23,.12,.53,.15,.77,.04,.06-.03,.12-.07,.18-.11,.16-.12,.29-.28,.36-.45,.18-.45-.03-.94-.36-1.26-.27-.27-.65-.43-1.03-.42h0Z"/><path class="b" d="M82.74,20.85h.06c.07,0,.14,0,.21,.03,.08,.02,.15,.05,.22,.09,.07,.04,.14,.1,.2,.16h0c.06,.06,.11,.13,.15,.21,.03,.06,.06,.12,.07,.19,.01,.05,.02,.1,.02,.15,0,.04,0,.09-.02,.13-.01,.04-.03,.09-.06,.13-.03,.04-.06,.08-.1,.12-.04,.04-.09,.08-.15,.11l-.09,.04s-.08,.01-.12,.01c-.05,0-.09,0-.14-.02-.06-.02-.11-.04-.16-.07-.05-.03-.1-.07-.14-.11-.03-.03-.06-.07-.08-.11l-.03-.08v-.12l.03-.06,.05-.06h0l.02-.02h0c-.06,.03-.12,.09-.14,.16-.02,.06-.02,.13,0,.19,.05,.16,.19,.28,.33,.35,.16,.08,.35,.1,.51,.02,.04-.02,.08-.04,.12-.07,.1-.08,.19-.18,.24-.3,.12-.3-.02-.62-.24-.84-.18-.18-.43-.28-.68-.28,.32-.11,.69-.06,.96,.19,.39,.35,.43,.95,.08,1.35-.35,.39-.95,.43-1.35,.08-.39-.35-.43-.95-.08-1.35,.08-.09,.18-.17,.29-.22h0Z"/><path class="b" d="M82.27,23.72s.09,0,.14,.02c.05,.01,.1,.04,.15,.06,.05,.03,.09,.06,.13,.1h0s.07,.09,.1,.14c.02,.04,.04,.08,.05,.13v.19l-.04,.08-.06,.08-.1,.07-.06,.02h-.17s-.07-.03-.11-.05l-.09-.07-.05-.07-.02-.05v-.08l.02-.04,.03-.04h.02v-.02s-.08,.06-.09,.1c-.01,.04-.01,.09,0,.13,.03,.1,.13,.19,.22,.23,.1,.05,.23,.07,.34,.02l.08-.05c.07-.05,.13-.12,.16-.2,.08-.2-.01-.41-.16-.55-.12-.12-.29-.19-.45-.19,.21-.08,.46-.04,.64,.12,.26,.23,.28,.63,.05,.9-.23,.26-.63,.28-.9,.05-.26-.23-.28-.63-.05-.9,.06-.06,.12-.11,.19-.15h.04Z"/><path class="b" d="M58.74,49.6c.51,.01,1,.3,1.25,.78,.36,.71,.08,1.57-.62,1.94-.71,.36-1.57,.08-1.94-.62-.36-.71-.08-1.57,.62-1.94,.17-.09,.35-.14,.53-.15l.08,.03c.1,.04,.19,.09,.28,.16,.1,.07,.18,.16,.26,.25,.08,.1,.14,.21,.2,.33h0c.05,.12,.08,.25,.1,.38,.01,.1,.01,.2,0,.31-.01,.08-.03,.15-.06,.23-.03,.06-.06,.12-.1,.17-.04,.06-.09,.1-.15,.15-.06,.05-.13,.09-.2,.12-.08,.03-.17,.06-.26,.08-.05,0-.1,0-.15,0-.06,0-.11-.02-.17-.05-.06-.03-.13-.06-.18-.11-.07-.06-.13-.12-.19-.19-.05-.07-.1-.14-.14-.22-.03-.06-.05-.13-.06-.19,0-.04,0-.09,0-.13l.02-.1,.04-.07,.07-.07s.07-.05,.11-.06h0l.04-.02h0c-.11,.01-.21,.06-.28,.14-.07,.08-.09,.18-.1,.28-.02,.25,.12,.5,.27,.68,.17,.2,.44,.33,.7,.31,.07,0,.14-.02,.2-.04,.19-.05,.37-.15,.5-.29,.33-.35,.31-.89,.12-1.3-.16-.35-.45-.63-.81-.76h0Z"/><path class="b" d="M56.81,53.03c.34,0,.66,.2,.83,.52,.24,.47,.06,1.04-.41,1.29-.47,.24-1.04,.06-1.29-.41-.24-.47-.06-1.04,.41-1.29,.11-.06,.23-.09,.35-.1l.05,.02c.07,.03,.13,.06,.19,.1,.06,.05,.12,.1,.17,.17,.05,.07,.1,.14,.13,.22h0c.03,.08,.06,.17,.07,.25,0,.07,0,.14,0,.2,0,.05-.02,.1-.04,.15-.02,.04-.04,.08-.07,.12-.03,.04-.06,.07-.1,.1-.04,.03-.09,.06-.13,.08-.06,.02-.12,.04-.17,.05h-.1s-.08-.01-.11-.03c-.04-.02-.08-.04-.12-.07-.05-.04-.09-.08-.13-.13-.04-.05-.07-.1-.09-.15-.02-.04-.03-.08-.04-.13v-.09l.02-.06,.03-.05,.05-.05,.07-.04h.03c-.07,0-.14,.03-.19,.08-.04,.05-.06,.12-.07,.18-.01,.16,.08,.33,.18,.45,.12,.13,.29,.22,.47,.21,.05,0,.09-.01,.13-.02,.13-.03,.24-.1,.33-.2,.22-.23,.2-.59,.08-.87-.11-.23-.3-.42-.54-.51h0Z"/><path class="b" d="M55.27,55.54c.22,0,.44,.13,.55,.34,.16,.31,.04,.69-.27,.85-.31,.16-.69,.04-.85-.27-.16-.31-.04-.69,.27-.85,.07-.04,.15-.06,.23-.07h.04s.08,.05,.12,.08c.04,.03,.08,.07,.11,.11,.03,.05,.06,.09,.09,.15h0c.02,.05,.04,.11,.05,.17,0,.05,0,.09,0,.14l-.03,.1-.04,.08-.06,.07-.09,.05s-.08,.03-.12,.03h-.06l-.07-.02-.08-.05-.08-.08s-.04-.06-.06-.1l-.03-.08v-.1l.03-.03,.03-.03,.05-.03h.02s-.09,.02-.12,.06c-.03,.03-.04,.08-.04,.12,0,.11,.05,.22,.12,.3,.08,.09,.19,.15,.31,.14l.09-.02c.08-.02,.16-.07,.22-.13,.15-.16,.14-.39,.05-.58-.07-.15-.2-.28-.36-.34h0Z"/><rect class="b" x="44.68" y="66.34" width="0" height=".01" transform="translate(-11.43 9.34) rotate(-10.59)"/><path class="b" d="M37.26,66.72c.17-.03,.33-.03,.49,0l.07,.04c.08,.06,.15,.13,.21,.21,.07,.09,.12,.18,.17,.28,.04,.11,.08,.22,.09,.34h0c.01,.12,.02,.24,0,.36-.01,.09-.04,.18-.07,.27-.03,.07-.07,.13-.11,.18-.04,.05-.08,.09-.13,.13-.05,.04-.11,.07-.16,.09-.07,.03-.14,.04-.21,.05-.08,0-.17,.01-.25,0-.04,0-.09-.02-.13-.03-.05-.02-.09-.05-.14-.08-.05-.04-.09-.09-.13-.14-.05-.07-.09-.14-.12-.21-.03-.07-.05-.15-.07-.23,0-.06,0-.12,0-.18,0-.04,.02-.08,.03-.12l.05-.08,.05-.06,.08-.05s.07-.02,.11-.03h.04c-.1-.02-.2,0-.28,.05-.08,.05-.13,.13-.16,.22-.07,.21-.02,.47,.08,.66,.11,.22,.3,.4,.54,.45,.06,.01,.12,.02,.19,.02,.18,0,.36-.05,.51-.14,.38-.23,.49-.71,.42-1.12-.05-.34-.24-.65-.51-.86,.44,.14,.79,.5,.89,.98,.15,.71-.31,1.41-1.02,1.56-.71,.15-1.41-.31-1.56-1.02-.15-.71,.31-1.41,1.02-1.56h0Z"/><rect class="b" x="38.29" y="67.59" width="0" height="0" transform="translate(-8.18 5.34) rotate(-7.21)"/><rect class="b" x="33.75" y="67.6" width="0" height="0" transform="translate(-9.03 5.32) rotate(-7.95)"/><rect class="b" x="33.75" y="67.59" width="0" height="0" transform="translate(-7.95 4.59) rotate(-6.96)"/><path class="b" d="M32.93,66.91c.13-.03,.26-.03,.39,0l.06,.03c.06,.05,.12,.1,.16,.16,.05,.07,.1,.14,.13,.22,.04,.09,.06,.18,.07,.27h0c.01,.1,.01,.19,0,.28-.01,.07-.03,.15-.06,.21-.02,.05-.05,.1-.09,.15-.03,.04-.06,.07-.1,.1-.04,.03-.08,.06-.13,.08-.05,.02-.11,.03-.16,.04-.07,0-.13,0-.2,0l-.1-.03s-.07-.04-.11-.06c-.04-.03-.07-.07-.11-.11-.04-.05-.07-.11-.1-.17-.02-.06-.04-.12-.05-.18,0-.05,0-.1,0-.14l.02-.09,.04-.06,.04-.04,.06-.04,.09-.02h.03c-.08-.01-.16,0-.22,.04-.06,.04-.1,.11-.12,.17-.06,.17-.02,.37,.06,.52,.08,.17,.24,.32,.43,.35,.05,0,.1,.01,.15,.01,.14,0,.29-.04,.4-.11,.3-.18,.38-.56,.33-.88-.04-.27-.19-.52-.4-.68,.35,.11,.62,.39,.7,.77,.12,.56-.24,1.11-.8,1.23-.56,.12-1.11-.24-1.23-.8-.12-.56,.24-1.11,.8-1.23h0Z"/><rect class="b" x="16.18" y="51.02" width="0" height="0"/><path class="b" d="M16.5,50.36c.23-.03,.44,.04,.6,.18l.02,.04c.02,.06,.04,.13,.05,.19,0,.07,0,.14,0,.21-.01,.05-.03,.1-.04,.14-.02,.05-.05,.09-.08,.14l-.09,.09s-.08,.05-.12,.07c-.06,.02-.12,.04-.18,.05-.04,0-.09,0-.13,0-.04,0-.08-.02-.11-.04l-.07-.04-.08-.07-.06-.1s-.02-.07-.03-.11v-.09h0s.02-.09,.03-.13c.02-.04,.04-.08,.07-.12l.06-.06s.07-.05,.12-.07h0c-.16,.02-.25,.11-.33,.25-.08,.15-.08,.32,0,.46,.07,.14,.22,.23,.37,.26,.03,0,.07,.01,.11,.01,.13,0,.26-.05,.37-.12,.22-.14,.33-.42,.29-.67,0-.06-.02-.12-.04-.18,.07,.1,.13,.21,.14,.34,.06,.41-.23,.79-.65,.85-.41,.06-.79-.23-.85-.65-.06-.41,.23-.79,.65-.85h0Z"/><rect class="b" x="16.18" y="51.03" width="0" height="0" transform="translate(-36.92 57.76) rotate(-79.63)"/><rect class="b" x="17.81" y="57.31" width="0" height="0" transform="translate(-41.86 63.74) rotate(-78.89)"/><path class="b" d="M18.07,56.76c.19-.03,.37,.04,.5,.15l.02,.03c.02,.05,.03,.11,.04,.16,0,.06,0,.11,0,.17,0,.04-.02,.08-.04,.12-.02,.04-.04,.08-.07,.12l-.08,.07-.1,.05s-.1,.03-.15,.04c-.04,0-.07,0-.11,0l-.09-.03-.05-.03-.06-.06-.05-.08-.02-.09v-.07h0s.02-.08,.03-.11l.06-.1,.05-.05s.06-.04,.1-.06h0c-.13,.02-.21,.09-.28,.21-.07,.12-.06,.26,0,.39,.05,.12,.18,.19,.3,.21h.09c.11,0,.22-.03,.31-.09,.18-.12,.27-.35,.24-.56,0-.05-.02-.1-.04-.15,.06,.08,.1,.18,.12,.29,.05,.34-.19,.66-.54,.71-.34,.05-.66-.19-.71-.54-.05-.34,.19-.66,.54-.71h0Z"/><rect class="b" x="17.8" y="57.32" width="0" height="0" transform="translate(-41.72 64.98) rotate(-80.08)"/><path class="b" d="M47.51,42.63c.46,.36,.75,.94,.72,1.57-.05,1.04-.93,1.84-1.97,1.79-1.04-.05-1.84-.93-1.79-1.97,.05-1.04,.93-1.84,1.97-1.79,.25,.01,.49,.08,.71,.18,.07,.11,.13,.22,.18,.33,.06,.16,.11,.33,.13,.51,.02,.16,.02,.31,0,.47-.02,.1-.05,.2-.09,.3-.05,.12-.12,.22-.19,.32-.07,.09-.15,.16-.24,.23-.07,.05-.14,.09-.22,.13-.07,.03-.14,.04-.22,.06-.07,0-.14,0-.21,0-.05-.01-.09-.02-.14-.04-.04-.02-.08-.04-.12-.07-.07-.06-.13-.12-.18-.19-.07-.09-.12-.19-.17-.29-.03-.07-.05-.14-.06-.21,0-.05,0-.09,0-.14,0-.04,.02-.08,.03-.12l.05-.08,.07-.07s.09-.06,.14-.08h0c-.24,.03-.4,.16-.47,.4-.07,.26,0,.55,.13,.78,.13,.26,.35,.45,.63,.52h0c.33,.09,.68,0,.95-.19,.27-.18,.45-.45,.57-.75,.12-.32,.11-.67,.04-.99-.05-.21-.13-.42-.25-.61h0Z"/><path class="b" d="M42.22,48.87c.26,.07,.55,0,.76-.16,.2-.16,.32-.39,.36-.63,.01,.07,.01,.14,.01,.21-.03,.58-.52,1.03-1.1,1-.58-.03-1.03-.52-1-1.1,.03-.58,.52-1.03,1.1-1,.4,.02,.73,.26,.89,.59,0,.06,0,.11,0,.17-.02,.09-.04,.18-.07,.27-.03,.06-.06,.12-.1,.18-.05,.06-.1,.11-.16,.16-.05,.04-.1,.07-.16,.09-.08,.03-.16,.05-.24,.06-.06,0-.13,0-.19,0-.05,0-.09-.02-.14-.04-.04-.02-.08-.05-.12-.07l-.07-.08s-.04-.07-.06-.1c-.02-.04-.03-.08-.04-.12,0-.04,0-.09,0-.13,0-.04,.02-.08,.04-.12l.04-.06,.09-.09s.08-.05,.12-.07h0l.05-.02h0c-.19,0-.34,.1-.42,.27-.08,.18-.03,.42,.1,.57,.09,.1,.21,.17,.34,.2h0Z"/><rect class="b" x="39.42" y="52.09" width="0" height="0" transform="translate(-24.58 65.2) rotate(-64.45)"/><path class="b" d="M39.57,52.74l.1,.04c.13,.03,.27,.02,.39-.02,.25-.08,.42-.32,.45-.58,0-.06,0-.12,0-.18,.05,.11,.07,.24,.05,.37-.05,.41-.42,.71-.84,.66-.41-.05-.71-.42-.66-.84,.05-.41,.42-.71,.84-.66,.23,.03,.41,.15,.53,.33v.05c.02,.07,.02,.13,0,.2-.01,.07-.03,.13-.06,.2-.02,.05-.05,.09-.08,.13-.04,.04-.07,.08-.12,.11-.04,.02-.07,.04-.11,.06-.04,.02-.09,.03-.13,.03-.06,0-.12,0-.19,0-.04,0-.08-.02-.13-.04-.04-.02-.07-.04-.1-.06l-.05-.05-.06-.09s-.02-.07-.03-.11c0-.04,0-.07,0-.11l.02-.09h0s.04-.08,.07-.12c.03-.04,.06-.07,.09-.1l.07-.04s.08-.03,.13-.04h0c-.16-.02-.27,.05-.38,.16-.12,.12-.15,.29-.12,.45,.03,.15,.16,.27,.29,.34h0Z"/><rect class="b" x="39.43" y="52.09" width="0" height="0" transform="translate(-24.7 64.56) rotate(-63.88)"/><path class="b" d="M44.53,23.83c.47,.28,.81,.77,.86,1.35,.09,.96-.62,1.82-1.59,1.91-.96,.09-1.82-.62-1.91-1.59-.09-.96,.62-1.82,1.59-1.91,.24-.02,.47,0,.68,.07,.08,.09,.15,.18,.21,.28,.08,.14,.14,.29,.19,.45,.04,.14,.06,.29,.06,.44,0,.1-.02,.19-.04,.29-.03,.11-.08,.22-.14,.32-.05,.09-.12,.17-.19,.25-.06,.06-.12,.11-.19,.15-.06,.03-.13,.06-.19,.08-.07,.01-.13,.02-.2,.02-.05,0-.09,0-.13-.02-.04-.01-.08-.03-.12-.05-.07-.04-.13-.09-.19-.15-.07-.08-.14-.15-.19-.24-.03-.06-.06-.12-.08-.19-.01-.04-.02-.09-.02-.13,0-.04,0-.07,.01-.11l.03-.08,.05-.07s.07-.06,.12-.09h0c-.22,.06-.35,.2-.38,.43-.03,.25,.08,.51,.22,.7,.15,.22,.39,.37,.65,.4h0c.31,.04,.62-.09,.85-.3,.23-.2,.36-.47,.43-.76,.07-.31,.02-.63-.09-.92-.07-.19-.18-.37-.31-.53h0Z"/><path class="b" d="M40.46,30.29c.24,.03,.51-.07,.68-.25,.17-.17,.25-.4,.25-.63,.02,.06,.03,.12,.04,.19,.05,.54-.35,1.01-.88,1.06-.54,.05-1.01-.35-1.06-.88-.05-.54,.35-1.01,.88-1.06,.36-.03,.7,.14,.89,.42,0,.06,.02,.11,.02,.17,0,.09-.01,.17-.03,.26-.02,.06-.04,.12-.07,.18-.04,.06-.08,.12-.12,.17-.04,.04-.09,.08-.13,.11-.07,.04-.14,.07-.21,.09-.06,.01-.12,.02-.18,.02-.04,0-.09,0-.13-.02-.04-.01-.08-.03-.12-.05l-.08-.06-.07-.09s-.04-.07-.05-.11c0-.04-.02-.08-.02-.12,0-.04,0-.07,.02-.11l.03-.06,.07-.09s.06-.05,.1-.08h0l.04-.02h0c-.17,.03-.3,.14-.35,.31-.05,.18,.03,.4,.17,.51,.1,.08,.22,.13,.34,.14h0Z"/><rect class="b" x="38.29" y="33.62" width="0" height="0" transform="translate(-5.39 59.87) rotate(-72.28)"/><path class="b" d="M39.38,33.73c0,.39-.3,.71-.69,.72-.39,0-.71-.3-.72-.69,0-.39,.3-.71,.69-.72,.21,0,.4,.09,.53,.23l.02,.04c.01,.06,.02,.12,.02,.19,0,.07-.01,.13-.03,.19-.02,.05-.03,.09-.06,.13h0s-.06,.08-.09,.12l-.09,.07s-.08,.04-.12,.05c-.06,.01-.11,.02-.17,.02-.04,0-.08,0-.12-.02-.04-.01-.07-.03-.1-.05l-.06-.04-.06-.08-.04-.1v-.18h0s.03-.08,.05-.12c.02-.04,.05-.07,.07-.1l.06-.05s.07-.04,.12-.05h0c-.15,0-.25,.08-.33,.2-.09,.13-.1,.28-.06,.43,.05,.14,.18,.23,.31,.28l.1,.02c.12,.01,.25-.02,.35-.07,.22-.1,.35-.35,.34-.59,0-.06-.01-.11-.02-.17,.06,.1,.09,.21,.1,.33h0Z"/><rect class="b" x="38.3" y="33.62" width="0" height="0"/><path class="b" d="M59.26,8.39c.12,.57-.25,1.12-.81,1.24-.57,.12-1.12-.25-1.24-.81-.12-.57,.25-1.12,.81-1.24,.39-.08,.77,.07,1.01,.35,.02,.05,.03,.11,.04,.17,0,.09,0,.18,0,.28-.01,.07-.03,.13-.06,.2-.03,.07-.07,.13-.11,.19-.04,.05-.08,.09-.13,.13-.07,.05-.14,.09-.22,.12-.06,.02-.12,.04-.19,.05-.05,0-.09,0-.14,0-.05,0-.09-.02-.14-.04l-.09-.06-.08-.08s-.05-.07-.07-.11c-.02-.04-.03-.08-.03-.13,0-.04,0-.08,0-.12l.02-.07s.04-.07,.06-.11c.03-.04,.06-.07,.1-.09h0l.04-.03h0c-.18,.06-.3,.18-.33,.37-.04,.19,.08,.42,.24,.53,.11,.08,.25,.11,.38,.11,.26,0,.53-.14,.69-.35,.16-.21,.21-.45,.19-.7,.03,.06,.05,.13,.06,.2h0Z"/><rect class="b" x="57.16" y="13.68" width="0" height="0" transform="translate(32.91 67.22) rotate(-79.09)"/><path class="b" d="M58.33,13.67c.06,.41-.23,.79-.65,.85-.13,.02-.25,0-.36-.04-.09-.03-.17-.08-.24-.14-.13-.12-.22-.27-.25-.46-.06-.41,.23-.79,.65-.85,.23-.03,.44,.04,.6,.18l.02,.04s.03,.09,.03,.14v.06c.02,.07,.02,.14,0,.21-.01,.05-.03,.1-.04,.14-.02,.05-.05,.09-.08,.14l-.09,.09s-.08,.05-.12,.07c-.06,.02-.12,.04-.18,.05h-.13s-.08-.02-.11-.04l-.05-.03h-.02l-.08-.08-.06-.1s-.02-.07-.03-.11v-.09h0s.02-.09,.03-.13c.02-.04,.04-.08,.07-.12l.06-.06s.07-.05,.12-.07h0c-.16,.02-.25,.11-.33,.25-.08,.15-.08,.32,0,.46,.03,.06,.08,.11,.13,.15,.07,.05,.15,.08,.23,.1h0s.07,.01,.11,.01c.13,0,.26-.05,.37-.11,.22-.14,.33-.42,.29-.67,0-.06-.02-.12-.04-.18,.07,.1,.12,.21,.14,.34h0Z"/><path class="b" d="M79.69,64.49c-.33-.17-.66-.42-.95-.72-.6-.6-1.02-1.37-1.14-2.11-.16-.89,.02-1.77,.48-2.42,.41-.57,.99-1.02,1.63-1.26,.08-.03,.17-.06,.25-.09,2.19-.7,4.43,.46,4.21,2.56-.03,.29-.09,.54-.17,.74h.02c-.64,1.22-1.7,1.54-2.92,1.15-.19-.07-.37-.16-.54-.26-.12-.09-.23-.18-.33-.29-.07-.08-.13-.17-.18-.27-.04-.09-.07-.19-.09-.29-.01-.08-.02-.16-.01-.24,.01-.08,.03-.15,.05-.22,.03-.08,.07-.17,.12-.24,.07-.09,.15-.18,.23-.26,.1-.08,.21-.15,.33-.21,.12-.05,.24-.09,.36-.12,.1-.01,.2-.02,.3-.02,.08,0,.16,.03,.24,.05,.07,.03,.14,.06,.21,.11,.08,.05,.14,.12,.21,.19,.04,.05,.08,.11,.11,.17,.03,.07,.05,.15,.07,.23,.01,.09,.02,.17,.01,.26,0,.08-.03,.16-.05,.24-.03,.07-.06,.14-.1,.21-.04,.06-.09,.12-.15,.17-.06,.05-.12,.09-.18,.12-.07,.03-.14,.05-.21,.07h-.05v.02c.36,.02,.67-.14,.88-.43,.22-.3,.27-.68,.18-1.04-.08-.35-.35-.64-.65-.83-.27-.17-.62-.22-.94-.19-.68,.06-1.33,.48-1.63,1.1-.33,.69-.08,1.51,.46,2.02,.42,.39,1.01,.59,1.57,.65,.43,.04,.86,0,1.27-.12,.61-.2,1.2-.61,1.6-1.64,.69,.17,1.36-.1,1.89-.57-1.25,1.92-4.02,3.76-6.21,3.15-.14-.04-.28-.09-.42-.16h0c1.01,.56,2.24,.46,3.31,.13l.09-.03c1.21-.38,2.31-1.1,3.1-2.1,.98-1.23,.86-2.16,.98-2.56,0,.22-.02,.45-.07,.67,.32,3.02-4.15,6.3-7.15,4.71h0Z"/></svg>