<?xml version="1.0" encoding="utf-8"?>
<!-- Generator: Adobe Illustrator 26.3.1, SVG Export Plug-In . SVG Version: 6.00 Build 0)  -->
<svg version="1.1" id="Layer_1" xmlns="http://www.w3.org/2000/svg" xmlns:xlink="http://www.w3.org/1999/xlink" x="0px" y="0px"
	 viewBox="0 0 351 235" style="enable-background:new 0 0 351 235;" xml:space="preserve">
<path d="M345.4,83.3c0,1.2-1.8,2.6-3.7,2.6c-1.4,0-2.8-0.9-3.5-3.4c-23.5,0-42.3,57.5-80.8,60.7c14.1,4.1,14.1,22.6,14.1,40.9
	c0,20.3,0.2,40.4,18.3,42c9.9,0.9,17.5-0.7,22.4-3.4c0.7-0.2,1.2-0.5,1.4-0.4c0.2,0-0.2,0.2-1.2,0.7c-5.6,3-13.8,4.8-24.3,3.9
	c-22.9-1.9-30-14.1-28.2-33c0.7-8.8,3-17.8,4.1-28.9c0.9-11.5-0.4-20.3-9.3-21.7H254c-1.9,0-3.4,1.1-4.6,1.1c-1.6,0-2.3-1.1-2.3-1.9
	c0-0.7,0.5-1.4,1.6-1.4c1.2,0,3,1.2,4.8,1.4c0.2,0.2,0.4,0.2,0.5,0.2c29.4,0,47.6-61.2,87.1-61.2v0
	C344.3,81.5,345.4,82.4,345.4,83.3z M247,130.9c-25.4,43.6-58.7,72.1-92.4,72.1c-15.9,0-27.9-10.2-27.9-23.8
	c0-12.1,6.8-26.8,18.7-39c0.6-8.8,3.6-18.7,3.6-30.5c0-11.8-2.3-20.5-11.8-20.8c-1.9,0.2-3.2,1.1-4.2,1.1c-1.6,0-2.3-1.1-2.3-1.9
	c0-0.7,0.5-1.4,1.6-1.4c1.2,0,2.8,1.6,4.8,1.6c32.3-0.2,63.5-26.4,63.5-48.1c0-9-5.8-16.6-19.6-19.4C142.5,54.2,92.6,145,34.4,145
	c-19.9,0-28.7-10.8-28.7-24.9c0-25.7,29.3-62.1,73.2-62.1c15.5,0,22,6.7,22,15.5c0,16.2-21.9,39.3-49.4,39.3
	c-7.2,0-15.2-4.4-15.2-10.6h0.2c0,5.1,9.7,6.5,14.8,6.5c27.2,0,48.8-21.2,48.8-36c0-7.9-6.3-14.1-21.3-14.1
	c-41.1,0-70.4,33.7-70.4,57.1c0,12.2,8.1,21.7,27,21.7c58.2,0,105.4-84.8,143.7-117.3c-3.7-0.7-7.9-1.1-12.9-1.1
	c-41.8,0-59.4,23.6-59.4,40.2c0,9.2,5.3,16.2,14.8,16.2l0.2,0.5c-14.5,0-22-8.3-22-18.7c0-16.8,20.5-39,66.3-39
	c5.1,0,9.7,0.4,13.8,1.1c9-7.4,17.3-11.8,25.2-11.8l0,0c2.3,0,4.6,0,4.6,2.5c0,1.1-1.1,1.8-1.9,1.8c-0.9,0-1.8-0.7-1.8-2.5
	c0-0.9,0-1.2-0.9-1.2c-7.2,0-15.2,4.4-23.5,11.6c17.3,3.7,25.6,13.9,25.6,25.4c0,19-24.5,41.4-64.7,43.6
	c16.9,3.5,15.6,22.9,14.4,41.5c2.8-1.9,5.7-3.7,8.8-5.4c-1.8-3.4-2.5-7.1-2.5-10.6c0-16.8,16.2-40.4,54.8-40.4
	c22.7,0,42,11.3,63.3,11.3h0.2c2.6,0,4.2-0.7,6.5-0.7c2.5,0,3.4,0.5,3.4,1.2c0,0.7-1.4,1.6-3.2,1.6c-3.2,0-4.4-1.2-6.2-1.2v0
	C278.5,86.3,267.6,95.5,247,130.9z M156.8,131.7c-1.2,17.9-2,34.6,13.7,35.1c0.1,0,0.3,0,0.4,0c0.6,0,1.2,0,1.8,0
	c27.5,0,50.1-21.7,50.1-36.5c0-7.8-6-13.6-20.6-13.6c-12.9,0-24.5,3.2-34.6,8.5c4.4,7.2,14.1,12.9,29.3,12.9c3.7,0,7.9-0.4,12.5-1.2
	v0.4c-5.8,1.6-11.5,2.5-16.2,2.5h-0.7c-13.9,0-22.4-6.2-26.4-13.8C162.8,127.7,159.7,129.6,156.8,131.7z M278.7,86.3
	c-20.5-0.7-39.3-7.8-61-7.8c-36.7,0-53.3,18.9-53.3,35.8c0,3.5,0.9,6.9,2.6,10.1c10.2-5.1,22-8.3,35.1-8.3c15.2,0,21.3,6.3,21.3,15
	c0,16.2-22.9,39.9-50.6,39.9c-0.1,0-0.2,0-0.2,0c0,0,0,0-0.1,0c0,0,0,0-0.1,0c-0.6,0-1.2,0-1.8-0.1c-12.6-0.8-21-9.6-24.4-20
	c-0.9-2.9-1.2-5.8-1.1-8.9c-9.9,10.6-15.6,22.8-15.6,32.9c0,11.8,11.5,20.8,26.3,20.8c33.1,0,66.8-31.2,88.7-65.2l0,0
	C268,94.2,275.9,87.9,278.7,86.3z"/>
</svg>
